<svg xmlns="http://www.w3.org/2000/svg" version="1.0" width="512" height="512" viewBox="-4,22,46,46">
<path d="m0,56 7,0 0,7 -7,0zm6,1 -5,0 0,5 5,0zm-4,1 3,0 0,3 -3,0zm6,0 1,0 0,2 1,0 0,-1 1,0 0,-1 -1,0 0,-7 1,0 0,-1 -1,0 0,-1 1,0 0,-2 -1,0 0,1 -1,0 0,-1 1,0 0,-1 -1,0 0,-1 -3,0 0,-1 2,0 0,-1 -3,0 0,-1 3,0 0,-1 1,0 0,1 -1,0 0,1 1,0 0,2 1,0 0,-3 1,0 0,-1 -1,0 0,-1 1,0 0,-1 -1,0 0,-2 1,0 0,1 1,0 0,-6 -1,0 0,1 -1,0 0,2 -4,0 0,-1 3,0 0,-1 -1,0 0,-2 1,0 0,-1 -1,0 0,-1 1,0 0,-1 -1,0 0,-1 3,0 0,1 -1,0 0,1.5 0,1.5 -1,0 0,2 1,0 0,-1 1,0 0,-3 1,0 0,-3 3,0 0,1 -1,0 0,1 3,0 0,-1 0,-1 1,0 0,1 2,0 0,-1 1,0 0,1 1,0 0,-1 1,0 0,1 2,0 0,-1 1,0 0,1 3,0 0,7 1,0 0,2 1,0 0,-2 1,0 0,3 -1,0 0,2 1,0 0,-1 1,0 0,-1 1,0 0,-2 -1,0 0,-1 1,0 0,1 1,0 0,-1 1,0 0,1 -1,0 0,2 -1,0 0,1 1,0 0,1 1,0 0,1 1,0 0,3 -1,0 0,1 1,0 0,3 -1,0 0,1 1,0 0,3 -1,0 0,1 1,0 0,2 -1,0 0,-1 -1,0 0,-1 -1,0 0,1 -1,0 0,1 2,0 0,2 2,0 0,2 -1,0 0,1 1,0 0,4 -3,0 0,-1 2,0 0,-2 -1,0 0,-1 -2,0 0,1 1,0 0,1 -1,0 0,1 -1,0 0,-1 -1,0 0,2 -2,0 0,-1 -4,0 0,1 -3,0 0,-1 -1,0 0,-1 -2,0 0,1 -1,0 0,1 -1,0 0,-1 1,0 0,-1 1,0 0,-1 -1,0 0,-1 -2,0 0,-1 -1,0 0,1 -1,0 0,-1 1,0 0,-4 -1,0 0,-1 1,0 0,-1 -3,0 0,-1 -1,0 0,5 2,0 0,1 -2,0 0,1 1,0 0,1 -1,0 0,2 -1,0 0,1 -1,0 0,1 -1,0zm22,3 1,0 0,-1 1,0 0,1 1,0 0,-1 -1,0 0,-1 -1,0 0,1 -2,0 0,-1 -2,0 0,2 1,0 0,-1 1,0 0,2 1,0zm-4,-2 -1,0 0,-2 1,0 0,1 2,0 0,-2 -2,0 0,-1 -1,0 0,2 -1,0 0,-2 -4,0 0,-1 7,0 0,-1 -1,0 0,-2 1,0 0,1 3,0 0,1 -1,0 0,1 3,0 0,-1 1,0 0,-2 -1,0 0,-1 -1,0 0,-1 1,0 0,-1 1,0 0,2 3,0 0,-1 -2,0 0,-2 -2,0 0,-1 0,-1 -2,0 0,-1 1,0 0,-1 -1,0 0,1 -1,0 0,-1 -1,0 0,1 1,0 0,1 -2,0 0,1 1,0 0,1 -1,0 0,1 3,0 0,1 -1,0 0,1 -1,0 0,-1 -2,0 0,-5 1,0 0,-2 2,0 0,-2 2,0 0,-1 -2,0 0,1 -2,0 0,-1 1,0 0,-2 1,0 0,1 1,0 0,-1 -1,0 0,-3 -4,0 0,-1 1,0 0,-1 -1,0 0,1 -1,0 0,-1 -1,0 0,1 -1,0 0,-1 -1,0 0,1 -1,0 0,-1 -1,0 0,1 -1,0 0,-1 -1,0 0,1 1,0 0,1 -1,0 0,1 -1,0 0,1 1,0 0,1 -1,0 0,2 -1,0 0,1 1,0 0,1 -1,0 0,1 -1,0 0,1 1,0 0,-1 1,0 0,-1 2,0 0,-1 1,0 0,1 1.5,0 1.5,0 0,1 2,0 0,1 -2,0 0,1 -1,0 0,1 -4,0 0,-1 1,0 0,-1 2,0 0,-1 -2,0 0,1 -2,0 0,1 -1,0 0,3 1,0 0,5 1,0 0,1 -1,0 0,2 1,0 0,1 1,0 0,-1 -1,0 0,-2 1,0 0,1 1,0 0,4 2,0 0,-1 -1,0 0,-1 2,0 0,1 2,0 0,1 -2,0 0,2 4,0zm-5,-7 1,0 0,1 -1,0zm2,-2 -1,0 0,-3 2,0 0,2 -1,0 0,1 1,0 0,2 1,0 0,1 -2,0zm8,1 -2,0 0,-1 2,0 0,1 1,0 0,2 -1,0zm-6,-2 1,0 0,1 -1,0zm6,-2 -1,0 0,-1 1,0 0,1 1,0 0,1 -1,0zm-8,-2 -1,0 0,-1 2,0 0,2 -1,0zm-7,-6 1,0 0,1 -1,0zm16,16 -3,0 0,3 3,0zm-2,1 1,0 0,1 -1,0zm6,1 -3,0 0,1 3,0zm-2,-2 -1,0 0,1 1,0zm-20,-8 0,-2 -2,0 0,3 1,0 0,1 1,0 0,-2zm22,-2 -3,0 0,1 3,0zm-23,-2 -1,0 0,1 1,0zm20,0 -1,0 0,1 1,0zm3,-3 -1,0 0,1 -1,0 0,-2 -2,0 0,1 1,0 0,1 -1,0 0,1 3,0 0,1 1,0zm-24,0 -1,0 0,1 1,0zm3,-3 -1,0 0,1 1,0zm-1,-5 1,0 0,1 1,0 0,-1 -1,0 0,-1 -1,0 0,1 -1,0 0,1 1,0zm14,0 -1,0 0,1 1,0zm-15,-3 1,0 0,-1 -1,0 0,1 -1,0 0,1 1,0zm8,-1 -1,0 0,1 1,0zm-10,34 1,0 0,-2 5,0 0,1 -4,0 0,1 -1,0 0,1 -1,0zm4,0 1,0 0,1 -1,0zm-7,-7 1,0 0,2 -1,0zm-8,-4 1,0 0,4 -1,0zm5,3 2,0 0,-1 -1,0 0,-1 -2,0 0,-1 -1,0 0,-1 1,0 0,1 1,0 0,-1 2,0 0,1 -1,0 0,1 1,0 0,1 2,0 0,1 -2,0 0,1 -2,0zm7,0 1,0 0,1 -1,0zm-10,-2 1,0 0,1 -1,0zm6,-1 1,0 0,1 -1,0zm-6,-3 -2,0 0,-3 2,0 0,3 1,0 0,-1 1,0 0,1 1,0 0,-1 1,0 0,-1 1,0 0,1 1,0 0,2 -4,0 0,-1 -1,0 0,1 -1,0zm5,-1 -1,0 0,1 1,0zm-4,-2 2,0 0,1 -2,0zm0,-2 1,0 0,1 -1,0zm-3,-1 1,0 0,-1 -1,0 0,-1 1,0 0,-1 -1,0 0,-1 1,0 0,1 1,0 0,1 -1,0 0,1 1,0 0,2 -2,0zm6,-2 1,0 0,1 -1,0zm0,-2 1,0 0,1 -1,0zm2,0 1,0 0,1 -1,0zm-5,-1 -1,0 0,-1 -2,0 0,-2 5,0 0,2 -1,0 0,-1 -2,0 0,1 1,0 0,1 1,0 0,1 -1,0zm3,-1 2,0 0,1 -2,0zm30,0 1,0 0,1 -1,0zm-36,-10 7,0 0,7 -7,0zm6,1 -5,0 0,5 5,0zm-4,1 3,0 0,3 -3,0zm28,-2 7,0 0,7 -7,0zm6,1 -5,0 0,5 5,0zm-4,1 3,0 0,3 -3,0 z" fill="#000"/>
</svg>
