<?xml version="1.0" encoding="UTF-8" standalone="no"?>
<!-- Created with Inkscape (http://www.inkscape.org/) -->

<svg xmlns:dc="http://purl.org/dc/elements/1.1/" xmlns:cc="http://creativecommons.org/ns#" xmlns:rdf="http://www.w3.org/1999/02/22-rdf-syntax-ns#" xmlns:svg="http://www.w3.org/2000/svg" xmlns="http://www.w3.org/2000/svg" version="1.1" width="744.09448" height="1052.3622" id="svg2">
  <defs id="defs4" />
  <metadata id="metadata7">
    <rdf:RDF>
      <cc:Work rdf:about="">
        <dc:format>image/svg+xml</dc:format>
        <dc:type rdf:resource="http://purl.org/dc/dcmitype/StillImage" />
        <dc:title></dc:title>
      </cc:Work>
    </rdf:RDF>
  </metadata>
  <g id="layer1">
    <path d="m 367.39621,806.01487 -74,0 0,-74 0,-74 74,0 74,0 0,74 0,74 -74,0 z" id="path3965" style="fill:#fefefe" />
    <g transform="translate(-374,16)" id="g3925">
      <path d="m 514.98808,789.93365 c -15.41667,0 -15.41667,0 -15.41667,-6.16667 0,-5.61251 0.36003,-6.16666 4.00647,-6.16666 2.48914,0 5.69069,-1.80297 8.45361,-4.76068 3.97462,-4.25485 4.69556,-4.51226 6.78519,-2.42262 1.28594,1.28593 2.33806,3.84365 2.33806,5.68381 0,1.84017 2.08125,5.28993 4.625,7.66615 2.54375,2.37622 4.625,4.73581 4.625,5.24354 0,0.50772 -6.9375,0.92313 -15.41666,0.92313 z m 84.79166,0 c -18.5,0 -29.29166,-0.56798 -29.29166,-1.54167 0,-0.84791 0.69375,-1.54166 1.54166,-1.54166 0.84792,0 1.54167,-1.23435 1.54167,-2.743 0,-1.50865 1.3875,-3.74305 3.08333,-4.96534 1.69584,-1.22228 3.08334,-3.45669 3.08334,-4.96533 0,-1.50865 0.69375,-2.743 1.54166,-2.743 0.84792,0 1.54167,-1.3875 1.54167,-3.08333 0,-2.82639 1.02778,-3.08334 12.33333,-3.08334 7.19445,0 12.33334,0.64236 12.33334,1.54167 0,0.84792 1.75263,1.54167 3.89473,1.54167 2.55704,0 6.26359,2.36884 10.79167,6.89693 4.52808,4.52808 6.89693,8.23463 6.89693,10.79166 0,3.89474 0,3.89474 -29.29167,3.89474 z" id="path3941" style="fill:#fefefe" />
      <path d="m 535.28669,789.87501 c -0.56528,-0.0322 -1.89497,-1.0436 -2.95486,-2.24743 -1.0599,-1.20384 -1.92709,-3.2587 -1.92709,-4.56636 0,-1.34979 -1.33286,-2.37757 -3.08333,-2.37757 -2.56944,0 -3.08333,-1.02778 -3.08333,-6.16667 0,-3.39166 -0.69375,-6.16666 -1.54167,-6.16666 -0.84792,0 -1.54167,-0.69375 -1.54167,-1.54167 0,-0.84792 1.23435,-1.54167 2.743,-1.54167 1.50865,0 3.74305,1.3875 4.96534,3.08334 1.22228,1.69583 3.45669,3.08333 4.96533,3.08333 1.50865,0 2.743,1.09018 2.743,2.42262 0,1.33244 0.99107,3.41369 2.20238,4.625 1.21131,1.21131 3.29256,2.20238 4.625,2.20238 1.33244,0 2.42262,0.69375 2.42262,1.54167 0,0.8993 5.13889,1.54166 12.33333,1.54166 6.78334,0 12.33334,0.39643 12.33334,0.88096 0,0.48452 -1.10359,1.98453 -2.45241,3.33336 -2.08398,2.08397 -2.663,2.12533 -3.85417,0.27529 -1.19673,-1.85868 -1.62724,-1.83888 -2.94342,0.13539 -1.37037,2.05556 -1.72601,2.05556 -3.20071,0 -1.2492,-1.74124 -1.85219,-1.83645 -2.44097,-0.38541 -0.43006,1.05989 -2.05381,1.92708 -3.60832,1.92708 -1.55452,0 -3.23108,-0.86719 -3.7257,-1.92708 -0.71944,-1.54167 -1.07916,-1.54167 -1.79861,0 -0.49462,1.05989 -2.17118,1.92708 -3.72569,1.92708 -1.55452,0 -3.23108,-0.86719 -3.7257,-1.92708 -0.71944,-1.54167 -1.07916,-1.54167 -1.79861,0 -0.49462,1.05989 -1.3618,1.90069 -1.92708,1.86844 z m -3.34028,-21.52469 c -0.84792,0 -1.54167,-1.3875 -1.54167,-3.08334 0,-2.05555 -1.02777,-3.08333 -3.08333,-3.08333 -1.69583,0 -3.08333,-0.63594 -3.08333,-1.41319 0,-0.77726 0.86718,-1.81789 1.92708,-2.3125 1.54167,-0.71945 1.54167,-1.07917 0,-1.79862 -1.0599,-0.49461 -1.92708,-2.17118 -1.92708,-3.72569 0,-1.55451 0.86718,-3.23108 1.92708,-3.72569 1.54167,-0.71945 1.54167,-1.07917 0,-1.79862 -1.0599,-0.49461 -1.92708,-2.86493 -1.92708,-5.26736 0,-2.40243 -0.86719,-4.71992 -1.92709,-5.14999 -1.45104,-0.58878 -1.35583,-1.19177 0.38542,-2.44097 2.05556,-1.4747 2.05556,-1.83033 0,-3.2007 -2.05556,-1.37037 -2.05556,-1.72601 0,-3.20071 1.74125,-1.2492 1.83646,-1.85219 0.38542,-2.44097 -1.0599,-0.43006 -1.92709,-2.80537 -1.92709,-5.27846 0,-2.47309 -0.69375,-4.49653 -1.54166,-4.49653 -0.84792,0 -1.54167,-2.08125 -1.54167,-4.625 0,-2.54375 0.69375,-4.625 1.54167,-4.625 0.84791,0 1.54166,-2.08125 1.54166,-4.625 0,-2.54375 -0.69375,-4.625 -1.54166,-4.625 -0.84792,0 -1.54167,-1.3875 -1.54167,-3.08333 0,-2.05556 1.02778,-3.08334 3.08333,-3.08334 1.69584,0 3.08334,0.63594 3.08334,1.4132 0,0.77725 -0.86719,1.7229 -1.92709,2.10144 -1.05989,0.37853 -1.4398,1.21268 -0.84424,1.85367 0.59556,0.64098 2.32374,-0.0755 3.8404,-1.59214 1.96872,-1.96872 2.21023,-2.94001 0.84424,-3.39534 -1.05232,-0.35077 -1.91331,-2.34587 -1.91331,-4.43354 0,-2.08768 1.80421,-5.59999 4.00937,-7.80514 3.06312,-3.06312 4.30356,-3.53335 5.25592,-1.9924 0.99166,1.60455 1.78555,1.47798 3.8825,-0.61897 1.44976,-1.44976 2.16875,-3.10312 1.59775,-3.67413 -0.57101,-0.571 -1.69422,-0.0177 -2.49604,1.22967 -1.28131,1.99323 -1.63401,1.99382 -2.91271,0.005 -1.22625,-1.90744 -1.92088,-1.72575 -4.42041,1.15625 -1.63105,1.88064 -3.40448,3.41932 -3.94096,3.41932 -0.53648,0 -0.97542,-1.07216 -0.97542,-2.38258 0,-1.31041 1.70284,-4.08541 3.78409,-6.16666 3.4891,-3.48911 4.93126,-3.78409 18.5,-3.78409 8.78283,0 14.71591,0.62156 14.71591,1.54166 0,0.88096 4.625,1.54167 10.79166,1.54167 6.16667,0 10.79167,0.66071 10.79167,1.54167 0,0.84791 1.09018,1.54166 2.42262,1.54166 1.33244,0 3.41369,0.99107 4.625,2.20238 1.21131,1.21131 2.20238,3.23475 2.20238,4.49653 0,1.26178 0.86719,2.69884 1.92708,3.19345 1.54167,0.71945 1.54167,1.07917 0,1.79862 -1.05989,0.49461 -1.92708,2.22899 -1.92708,3.85416 0,1.62518 0.69375,2.95486 1.54167,2.95486 0.84791,0 1.54166,1.32969 1.54166,2.95486 0,1.62518 -0.86718,3.35955 -1.92708,3.85417 -1.54167,0.71945 -1.54167,1.07917 0,1.79861 1.0599,0.49462 1.92708,2.229 1.92708,3.85417 0,1.62517 -0.69375,2.95486 -1.54166,2.95486 -0.84792,0 -1.54167,1.3875 -1.54167,3.08333 0,1.69584 0.69375,3.08334 1.54167,3.08334 0.84791,0 1.54166,2.08125 1.54166,4.625 0,2.54375 -0.69375,4.625 -1.54166,4.625 -0.84792,0 -1.54167,3.46875 -1.54167,7.70833 0,4.23958 -0.69375,7.70833 -1.54167,7.70833 -0.84791,0 -1.54166,1.32969 -1.54166,2.95486 0,1.62518 -0.86719,3.30674 -1.92709,3.7368 -1.4781,0.59976 -1.41985,1.13587 0.25003,2.30107 1.8545,1.29401 1.8137,1.88253 -0.2753,3.97153 -1.34882,1.34883 -3.54258,2.45241 -4.87502,2.45241 -1.33244,0 -2.42262,0.63594 -2.42262,1.41319 0,0.77726 0.86718,1.81789 1.92708,2.3125 1.54167,0.71945 1.54167,1.07917 0,1.79862 -1.0599,0.49461 -1.92708,2.22899 -1.92708,3.85416 0,1.62518 -0.69375,2.95486 -1.54167,2.95486 -0.85648,0 -1.54167,-4.11111 -1.54167,-9.25 0,-8.22222 -0.34259,-9.25 -3.08333,-9.25 -2.05556,0 -3.08333,-1.02777 -3.08333,-3.08333 0,-1.69583 0.69375,-3.08333 1.54166,-3.08333 0.84792,0 1.54167,-2.08125 1.54167,-4.625 0,-2.54375 -0.69375,-4.625 -1.54167,-4.625 -0.84791,0 -1.54166,-2.775 -1.54166,-6.16667 0,-3.39167 -0.69375,-6.16667 -1.54167,-6.16667 -0.84792,0 -1.54167,-2.08125 -1.54167,-4.625 0,-2.54375 -0.69375,-4.625 -1.54166,-4.625 -0.84792,0 -1.54167,2.71719 -1.54167,6.0382 0,3.38574 0.84653,6.38168 1.92708,6.82013 1.45928,0.59212 1.37772,1.1636 -0.33596,2.35418 -1.90981,1.32683 -1.67689,2.08061 1.49221,4.82916 3.16911,2.74855 3.40203,3.50233 1.49222,4.82916 -1.71369,1.19058 -1.79525,1.76206 -0.33597,2.35418 1.0599,0.43007 1.92709,1.41788 1.92709,2.19513 0,0.77726 -1.3875,1.4132 -3.08334,1.4132 -2.05555,0 -3.08333,1.02777 -3.08333,3.08333 0,1.69583 -0.63594,3.08333 -1.41319,3.08333 -0.77726,0 -1.81789,-0.86718 -2.3125,-1.92708 -0.71945,-1.54167 -1.07917,-1.54167 -1.79862,0 -0.49461,1.0599 -1.53524,1.92708 -2.3125,1.92708 -0.77725,0 -1.41319,-1.32968 -1.41319,-2.95486 0,-1.62517 0.86719,-3.26457 1.92708,-3.6431 1.0599,-0.37854 1.43981,-1.21269 0.84425,-1.85367 -0.59556,-0.64099 -2.1565,-0.0918 -3.46875,1.22048 -1.31225,1.31225 -2.38591,3.47609 -2.38591,4.80853 0,1.33244 -0.63594,2.42262 -1.4132,2.42262 -0.77725,0 -1.70019,-0.86099 -2.05097,-1.91331 -0.4638,-1.39141 -1.33991,-1.21118 -3.2118,0.66071 -1.41572,1.41572 -2.57403,4.35796 -2.57403,6.53832 0,2.18035 -0.69375,3.96428 -1.54167,3.96428 -0.84792,0 -1.54167,2.775 -1.54167,6.16667 0,3.39167 -0.69375,6.16667 -1.54166,6.16667 -0.84792,0 -1.54167,-2.775 -1.54167,-6.16667 0,-3.39167 -0.69375,-6.16667 -1.54167,-6.16667 -0.84791,0 -1.54166,-2.08125 -1.54166,-4.625 0,-2.54375 -0.69375,-4.625 -1.54167,-4.625 -0.84792,0 -1.54167,2.775 -1.54167,6.16667 0,3.39167 0.69375,6.16667 1.54167,6.16667 0.84792,0 1.54167,2.08125 1.54167,4.625 0,2.54375 -0.69375,4.625 -1.54167,4.625 z m 49.33333,-18.5 c 0.84792,0 1.54167,-0.69375 1.54167,-1.54167 0,-0.84792 -0.69375,-1.54167 -1.54167,-1.54167 -0.84791,0 -1.54166,0.69375 -1.54166,1.54167 0,0.84792 0.69375,1.54167 1.54166,1.54167 z m -52.41666,-6.16667 c 0.84791,0 1.54166,-0.69375 1.54166,-1.54167 0,-0.84791 -0.69375,-1.54166 -1.54166,-1.54166 -0.84792,0 -1.54167,0.69375 -1.54167,1.54166 0,0.84792 0.69375,1.54167 1.54167,1.54167 z m 9.25,0 c 0.84791,0 1.54166,-0.69375 1.54166,-1.54167 0,-0.84791 -0.69375,-1.54166 -1.54166,-1.54166 -0.84792,0 -1.54167,0.69375 -1.54167,1.54166 0,0.84792 0.69375,1.54167 1.54167,1.54167 z m 43.16666,-3.08333 c 0.84792,0 1.54167,-0.69375 1.54167,-1.54167 0,-0.84792 -0.69375,-1.54167 -1.54167,-1.54167 -0.84791,0 -1.54166,0.69375 -1.54166,1.54167 0,0.84792 0.69375,1.54167 1.54166,1.54167 z m -46.25,-3.08334 c 0.84792,0 1.54167,-0.69375 1.54167,-1.54166 0,-0.84792 -0.69375,-1.54167 -1.54167,-1.54167 -0.84791,0 -1.54166,0.69375 -1.54166,1.54167 0,0.84791 0.69375,1.54166 1.54166,1.54166 z m 14.71591,0 c 0.4625,0 2.54375,-1.70284 4.625,-3.78409 2.08125,-2.08125 3.78409,-4.85625 3.78409,-6.16666 0,-1.31042 -0.63593,-2.38258 -1.41319,-2.38258 -0.77726,0 -1.76507,0.86719 -2.19513,1.92708 -0.59171,1.45827 -1.16515,1.37537 -2.35715,-0.34077 -0.86637,-1.24731 -2.11315,-1.72991 -2.77064,-1.07242 -0.65748,0.65748 -0.17489,1.90427 1.07243,2.77064 1.71613,1.19199 1.79903,1.76544 0.34077,2.35714 -1.0599,0.43007 -1.92709,2.11163 -1.92709,3.7368 0,1.62518 0.37841,2.95486 0.84091,2.95486 z m 13.03409,-3.08333 c 0.84792,0 1.54167,-0.69375 1.54167,-1.54167 0,-0.84791 -0.69375,-1.54166 -1.54167,-1.54166 -0.84791,0 -1.54166,0.69375 -1.54166,1.54166 0,0.84792 0.69375,1.54167 1.54166,1.54167 z m 18.5,0 c 0.84792,0 1.54167,-0.69375 1.54167,-1.54167 0,-0.84791 -0.69375,-1.54166 -1.54167,-1.54166 -0.84791,0 -1.54166,0.69375 -1.54166,1.54166 0,0.84792 0.69375,1.54167 1.54166,1.54167 z m -49.33333,-3.08333 c 0.84792,0 1.54167,-0.69375 1.54167,-1.54167 0,-0.84792 -0.69375,-1.54167 -1.54167,-1.54167 -0.84792,0 -1.54167,0.69375 -1.54167,1.54167 0,0.84792 0.69375,1.54167 1.54167,1.54167 z m 20.92262,-9.25 c 0.48452,0 1.87202,-0.99107 3.08333,-2.20238 1.21131,-1.21131 2.20238,-3.29256 2.20238,-4.625 0,-1.33244 -0.69375,-2.42262 -1.54166,-2.42262 -0.84792,0 -1.54167,1.3875 -1.54167,3.08333 0,1.69583 -0.69375,3.08333 -1.54167,3.08333 -0.84791,0 -1.54166,0.69375 -1.54166,1.54167 0,0.84792 0.39643,1.54167 0.88095,1.54167 z m 25.7128,-3.14198 c 0.63593,0.0322 1.15625,-0.63511 1.15625,-1.48302 0,-0.84792 1.3875,-1.54167 3.08333,-1.54167 1.69583,0 3.08333,0.69375 3.08333,1.54167 0,0.84791 0.69375,1.54166 1.54167,1.54166 0.84792,0 1.54167,-1.3875 1.54167,-3.08333 0,-2.67222 -1.02778,-3.08333 -7.70834,-3.08333 -4.23958,0 -7.70833,0.37615 -7.70833,0.8359 0,0.45974 0.86719,1.82086 1.92708,3.02469 1.0599,1.20384 2.4474,2.21518 3.08334,2.24743 z m -45.22223,-3.02469 c 1.62518,0 3.30674,-0.86719 3.7368,-1.92708 0.59037,-1.45496 1.21715,-1.36054 2.55834,0.38541 1.3412,1.74595 1.96798,1.84038 2.55834,0.38542 0.43007,-1.0599 2.05382,-1.92708 3.60833,-1.92708 1.55451,0 3.1361,0.86718 3.51463,1.92708 0.37854,1.0599 1.21269,1.43981 1.85367,0.84425 0.64099,-0.59556 0.0918,-2.1565 -1.22048,-3.46875 -1.58245,-1.58246 -5.27838,-2.38592 -10.9752,-2.38592 -7.56151,0 -8.58929,0.36895 -8.58929,3.08334 0,2.01087 1.02778,3.08333 2.95486,3.08333 z m -10.66319,-3.08333 c 0.84792,0 1.54167,-1.3875 1.54167,-3.08334 0,-2.05555 1.02777,-3.08333 3.08333,-3.08333 1.69583,0 3.08333,-0.69375 3.08333,-1.54167 0,-0.84791 2.08125,-1.54166 4.625,-1.54166 2.54375,0 4.625,0.69375 4.625,1.54166 0,0.84792 3.46875,1.54167 7.70834,1.54167 4.23958,0 7.70833,-0.69375 7.70833,-1.54167 0,-0.84791 -1.3875,-1.54166 -3.08333,-1.54166 -1.69584,0 -3.08334,-0.69375 -3.08334,-1.54167 0,-0.84792 -2.71718,-1.54167 -6.03819,-1.54167 -3.32315,0 -6.44256,-0.8665 -6.9375,-1.92708 -0.71945,-1.54167 -1.07917,-1.54167 -1.79861,0 -0.49462,1.0599 -2.92275,1.92708 -5.39584,1.92708 -3.46875,0 -4.49652,0.70477 -4.49652,3.08334 0,1.69583 -0.69375,3.08333 -1.54167,3.08333 -0.84792,0 -1.54167,1.3875 -1.54167,3.08333 0,1.69584 0.69375,3.08334 1.54167,3.08334 z m 53.95833,-3.08334 c 3.39167,0 6.16667,-0.69375 6.16667,-1.54166 0,-0.84792 2.08125,-1.54167 4.625,-1.54167 2.54375,0 4.625,-0.69375 4.625,-1.54167 0,-0.88095 -4.625,-1.54166 -10.79167,-1.54166 -9.76389,0 -10.79166,0.29365 -10.79166,3.08333 0,2.56944 1.02777,3.08333 6.16666,3.08333 z m 7.70834,-12.33333 c 0.84791,0 1.54166,-0.69375 1.54166,-1.54167 0,-0.84791 -0.69375,-1.54166 -1.54166,-1.54166 -0.84792,0 -1.54167,0.69375 -1.54167,1.54166 0,0.84792 0.69375,1.54167 1.54167,1.54167 z m -46.25,-6.16667 c 0.84791,0 1.54166,-0.69375 1.54166,-1.54166 0,-0.84792 -0.69375,-1.54167 -1.54166,-1.54167 -0.84792,0 -1.54167,0.69375 -1.54167,1.54167 0,0.84791 0.69375,1.54166 1.54167,1.54166 z m 18.5,0 c 0.84791,0 1.54166,-0.69375 1.54166,-1.54166 0,-0.84792 -0.69375,-1.54167 -1.54166,-1.54167 -0.84792,0 -1.54167,0.69375 -1.54167,1.54167 0,0.84791 0.69375,1.54166 1.54167,1.54166 z m 15.41666,0 c 0.84792,0 1.54167,-0.69375 1.54167,-1.54166 0,-0.84792 -0.69375,-1.54167 -1.54167,-1.54167 -0.84791,0 -1.54166,0.69375 -1.54166,1.54167 0,0.84791 0.69375,1.54166 1.54166,1.54166 z m 9.25,0 c 0.84792,0 1.54167,-0.69375 1.54167,-1.54166 0,-0.84792 -0.69375,-1.54167 -1.54167,-1.54167 -0.84791,0 -1.54166,0.69375 -1.54166,1.54167 0,0.84791 0.69375,1.54166 1.54166,1.54166 z m 6.16667,0 c 0.84792,0 1.54167,-0.69375 1.54167,-1.54166 0,-0.84792 -0.69375,-1.54167 -1.54167,-1.54167 -0.84792,0 -1.54167,0.69375 -1.54167,1.54167 0,0.84791 0.69375,1.54166 1.54167,1.54166 z m -21.58333,-3.08333 c 0.84791,0 1.54166,-0.69375 1.54166,-1.54167 0,-0.84791 -0.69375,-1.54166 -1.54166,-1.54166 -0.84792,0 -1.54167,0.69375 -1.54167,1.54166 0,0.84792 0.69375,1.54167 1.54167,1.54167 z m -33.91667,-3.08333 c 0.84792,0 1.54167,-0.69375 1.54167,-1.54167 0,-0.84792 -0.69375,-1.54167 -1.54167,-1.54167 -0.84792,0 -1.54167,0.69375 -1.54167,1.54167 0,0.84792 0.69375,1.54167 1.54167,1.54167 z m 6.16667,0 c 0.84791,0 1.54166,-0.69375 1.54166,-1.54167 0,-0.84792 -0.69375,-1.54167 -1.54166,-1.54167 -0.84792,0 -1.54167,0.69375 -1.54167,1.54167 0,0.84792 0.69375,1.54167 1.54167,1.54167 z m 49.33333,0 c 0.84792,0 1.54167,-1.09018 1.54167,-2.42262 0,-1.33244 -1.07366,-3.49628 -2.38592,-4.80853 -1.31225,-1.31226 -2.87319,-1.86148 -3.46875,-1.22049 -0.59556,0.64098 -0.21565,1.47514 0.84425,1.85367 1.0599,0.37853 1.92708,2.01793 1.92708,3.64311 0,1.62517 0.69375,2.95486 1.54167,2.95486 z m -43.16667,-3.08334 c 0.84792,0 1.54167,-0.69375 1.54167,-1.54166 0,-0.84792 -0.69375,-1.54167 -1.54167,-1.54167 -0.84791,0 -1.54166,0.69375 -1.54166,1.54167 0,0.84791 0.69375,1.54166 1.54166,1.54166 z m 30.83334,0 c 0.84791,0 1.54166,-0.69375 1.54166,-1.54166 0,-0.84792 -0.69375,-1.54167 -1.54166,-1.54167 -0.84792,0 -1.54167,0.69375 -1.54167,1.54167 0,0.84791 0.69375,1.54166 1.54167,1.54166 z m -18.5,-3.08333 c 0.84791,0 1.54166,-0.69375 1.54166,-1.54167 0,-0.84791 -0.69375,-1.54166 -1.54166,-1.54166 -0.84792,0 -1.54167,0.69375 -1.54167,1.54166 0,0.84792 0.69375,1.54167 1.54167,1.54167 z m 12.33333,0 c 0.84792,0 1.54167,-0.69375 1.54167,-1.54167 0,-0.84791 -0.69375,-1.54166 -1.54167,-1.54166 -0.84792,0 -1.54167,0.69375 -1.54167,1.54166 0,0.84792 0.69375,1.54167 1.54167,1.54167 z m -52.03125,58.52469 c -0.63594,-0.0322 -2.02344,-1.04359 -3.08333,-2.24743 -1.0599,-1.20383 -1.92709,-3.2587 -1.92709,-4.56636 0,-1.30766 -0.69375,-2.37757 -1.54166,-2.37757 -0.84792,0 -1.54167,-2.71718 -1.54167,-6.03819 0,-3.43572 0.83058,-6.33483 1.92708,-6.72644 1.1209,-0.40032 1.35508,-1.26025 0.55978,-2.05555 -0.79531,-0.79531 -1.65524,-0.56113 -2.05556,0.55977 -0.37853,1.05989 -1.32418,1.92708 -2.10144,1.92708 -0.77726,0 -1.41319,-1.09018 -1.41319,-2.42262 0,-1.33244 0.99107,-3.41369 2.20238,-4.625 1.21131,-1.21131 2.59881,-2.20238 3.08333,-2.20238 0.48452,0 0.88095,1.3875 0.88095,3.08333 0,1.69584 0.69375,3.08334 1.54167,3.08334 0.84792,0 1.54167,3.46875 1.54167,7.70833 0,4.23958 0.69375,7.70833 1.54166,7.70833 0.84792,0 1.54167,2.08125 1.54167,4.625 0,2.54375 -0.52031,4.59861 -1.15625,4.56636 z m 79.78125,0.0586 c -0.84792,0 -1.54167,-3.46875 -1.54167,-7.70833 0,-5.9798 0.54326,-7.70833 2.42262,-7.70833 1.33244,0 3.41369,0.99107 4.625,2.20238 1.21131,1.21131 2.20238,2.59881 2.20238,3.08333 0,0.48452 -1.3875,0.88095 -3.08333,0.88095 -2.39815,0 -3.08333,1.02778 -3.08333,4.625 0,2.54375 -0.69375,4.625 -1.54167,4.625 z" id="path3939" style="fill:#ecc0a5" />
      <path d="m 639.86308,789.93365 c -7.21217,0 -7.70834,-0.25024 -7.70834,-3.88768 0,-2.65492 -2.67807,-6.56576 -8.44565,-12.33333 -5.76757,-5.76758 -9.67842,-8.44566 -12.33333,-8.44566 -2.13823,0 -3.88768,-0.69375 -3.88768,-1.54166 0,-0.85649 -4.11111,-1.54167 -9.25,-1.54167 -9.25,0 -9.25,0 -9.25,-4.625 0,-2.54375 0.69375,-4.625 1.54166,-4.625 0.84792,0 1.54167,-2.775 1.54167,-6.16667 0,-3.39166 0.69375,-6.16666 1.54167,-6.16666 0.84791,0 1.54166,0.69375 1.54166,1.54166 0,0.84792 0.69375,1.54167 1.54167,1.54167 0.84792,0 1.54167,-1.3875 1.54167,-3.08333 0,-1.69584 0.69375,-3.08334 1.54166,-3.08334 0.84792,0 1.54167,-1.3875 1.54167,-3.08333 0,-1.69583 0.69375,-3.08333 1.54167,-3.08333 0.84791,0 1.54166,-2.775 1.54166,-6.16667 0,-3.39167 -0.69375,-6.16667 -1.54166,-6.16667 -0.84792,0 -1.54167,-3.46875 -1.54167,-7.70833 0,-4.23958 0.69375,-7.70833 1.54167,-7.70833 0.84791,0 1.54166,-2.08125 1.54166,-4.625 0,-2.54375 0.69375,-4.625 1.54167,-4.625 0.85648,0 1.54167,-4.11111 1.54167,-9.25 0,-5.13889 -0.68519,-9.25 -1.54167,-9.25 -0.84792,0 -1.54167,-1.3875 -1.54167,-3.08334 0,-1.69583 -0.69375,-3.08333 -1.54166,-3.08333 -0.84792,0 -1.54167,-1.3875 -1.54167,-3.08333 0,-1.69584 -0.69375,-3.08334 -1.54167,-3.08334 -0.84791,0 -1.54166,-1.06375 -1.54166,-2.36389 0,-1.30013 -2.405,-4.76888 -5.34445,-7.70833 -3.28528,-3.28528 -6.84921,-5.34444 -9.25,-5.34444 -2.14805,0 -3.90555,-0.69375 -3.90555,-1.54167 0,-0.84792 -2.775,-1.54167 -6.16667,-1.54167 -3.39167,0 -6.16667,-0.69375 -6.16667,-1.54166 0,-0.98825 14.38889,-1.54167 40.08334,-1.54167 40.08333,0 40.08333,0 40.08333,74 0,74 0,74 -7.70833,74 z M 503.46615,774.51698 c -3.89474,0 -3.89474,0 -3.89474,-66.29166 0,-66.29167 0,-66.29167 18.5,-66.29167 11.30556,0 18.5,0.59954 18.5,1.54167 0,0.84791 -1.3875,1.54166 -3.08333,1.54166 -1.69584,0 -3.08334,0.69375 -3.08334,1.54167 0,0.84792 -1.3875,1.54167 -3.08333,1.54167 -1.69583,0 -3.08333,0.69375 -3.08333,1.54166 0,0.84792 -1.07216,1.54167 -2.38258,1.54167 -1.31042,0 -4.08542,1.70284 -6.16667,3.78409 -2.5946,2.5946 -3.78409,5.50225 -3.78409,9.25 0,3.00625 -0.69375,5.46591 -1.54166,5.46591 -0.85648,0 -1.54167,4.11111 -1.54167,9.25 0,5.13889 0.68519,9.25 1.54167,9.25 0.84791,0 1.54166,3.46875 1.54166,7.70833 0,5.9798 -0.54325,7.70834 -2.42262,7.70834 -1.33244,0 -3.41369,0.99107 -4.625,2.20238 -1.21131,1.21131 -2.20238,4.68006 -2.20238,7.70833 0,3.02827 0.69375,5.50595 1.54167,5.50595 0.84792,0 1.54167,2.45966 1.54167,5.46591 0,3.74776 1.18949,6.6554 3.78409,9.25 2.08125,2.08125 4.85625,3.78409 6.16666,3.78409 1.3548,0 2.38258,1.33007 2.38258,3.08334 0,1.69583 0.69375,3.08333 1.54167,3.08333 0.84791,0 1.54166,1.32969 1.54166,2.95486 0,1.62517 -0.86718,3.35955 -1.92708,3.85417 -1.54167,0.71944 -1.54167,1.07916 0,1.79861 1.0599,0.49462 1.92708,2.59412 1.92708,4.66557 0,2.40488 -2.49301,6.25928 -6.89693,10.66319 -4.52808,4.52809 -8.23463,6.89693 -10.79166,6.89693 z" id="path3937" style="fill:#8398b4" />
      <path d="m 558.15474,780.68365 c -5.13889,0 -9.25,-0.68518 -9.25,-1.54167 0,-0.84791 -1.3875,-1.54166 -3.08333,-1.54166 -2.05556,0 -3.08333,-1.02778 -3.08333,-3.08334 0,-1.69583 -0.69375,-3.08333 -1.54167,-3.08333 -0.84792,0 -1.54167,-3.46875 -1.54167,-7.70833 0,-7.70834 0,-7.70834 13.875,-7.70834 8.22223,0 13.875,0.62809 13.875,1.54167 0,0.84792 1.3875,1.54167 3.08334,1.54167 1.69583,0 3.08333,-0.69375 3.08333,-1.54167 0,-0.84792 0.69375,-1.54167 1.54167,-1.54167 0.84791,0 1.54166,3.46875 1.54166,7.70834 0,4.23958 -0.69375,7.70833 -1.54166,7.70833 -0.84792,0 -1.54167,1.3875 -1.54167,3.08333 0,1.69584 -0.69375,3.08334 -1.54167,3.08334 -0.84791,0 -1.54166,-2.08125 -1.54166,-4.625 0,-2.54375 -0.69375,-4.625 -1.54167,-4.625 -0.84792,0 -1.54167,2.775 -1.54167,6.16666 0,6.16667 0,6.16667 -9.25,6.16667 z m -10.79166,-6.16667 c 0.84791,0 1.54166,-1.3875 1.54166,-3.08333 0,-1.69583 -0.69375,-3.08333 -1.54166,-3.08333 -0.84792,0 -1.54167,1.3875 -1.54167,3.08333 0,1.69583 0.69375,3.08333 1.54167,3.08333 z m 15.41666,-3.08333 c 0.84792,0 1.54167,-0.69375 1.54167,-1.54167 0,-0.84791 -0.69375,-1.54166 -1.54167,-1.54166 -0.84791,0 -1.54166,0.69375 -1.54166,1.54166 0,0.84792 0.69375,1.54167 1.54166,1.54167 z m -9.25,-3.08333 c 0.84792,0 1.54167,-0.69375 1.54167,-1.54167 0,-0.84792 -0.69375,-1.54167 -1.54167,-1.54167 -0.84791,0 -1.54166,0.69375 -1.54166,1.54167 0,0.84792 0.69375,1.54167 1.54166,1.54167 z m -9.25,-3.08334 c 0.84792,0 1.54167,-0.69375 1.54167,-1.54166 0,-0.84792 -0.69375,-1.54167 -1.54167,-1.54167 -0.84791,0 -1.54166,0.69375 -1.54166,1.54167 0,0.84791 0.69375,1.54166 1.54166,1.54166 z m 15.41667,0 c 0.84792,0 1.54167,-1.3875 1.54167,-3.08333 0,-1.69583 -0.69375,-3.08333 -1.54167,-3.08333 -0.84792,0 -1.54167,1.3875 -1.54167,3.08333 0,1.69583 0.69375,3.08333 1.54167,3.08333 z m 0,-12.33333 c -9.32708,0 -16.95833,-0.39643 -16.95833,-0.88095 0,-0.48453 0.99107,-1.87203 2.20238,-3.08334 1.5481,-1.5481 5.93174,-2.20238 14.75595,-2.20238 8.82421,0 13.20785,0.65428 14.75595,2.20238 1.21131,1.21131 2.20238,2.59881 2.20238,3.08334 0,0.48452 -7.63125,0.88095 -16.95833,0.88095 z" id="path3935" style="fill:#c88e69" />
      <path d="m 578.19641,719.01698 c -0.84792,0 -1.54167,-0.69375 -1.54167,-1.54166 0,-0.84792 0.69375,-1.54167 1.54167,-1.54167 0.84792,0 1.54167,0.69375 1.54167,1.54167 0,0.84791 -0.69375,1.54166 -1.54167,1.54166 z m -37,-3.08333 c -0.84792,0 -1.54167,-0.69375 -1.54167,-1.54167 0,-0.84791 0.69375,-1.54166 1.54167,-1.54166 0.84792,0 1.54167,0.69375 1.54167,1.54166 0,0.84792 -0.69375,1.54167 -1.54167,1.54167 z" id="path3933" style="fill:#4899cd" />
      <path d="m 599.77974,697.43365 c -0.84791,0 -1.54166,-1.3875 -1.54166,-3.08333 0,-1.69584 0.69375,-3.08334 1.54166,-3.08334 0.84792,0 1.54167,1.3875 1.54167,3.08334 0,1.69583 -0.69375,3.08333 -1.54167,3.08333 z m 0,-9.25 c -0.84791,0 -1.54166,-2.775 -1.54166,-6.16667 0,-3.39166 0.69375,-6.16666 1.54166,-6.16666 0.84792,0 1.54167,2.775 1.54167,6.16666 0,3.39167 -0.69375,6.16667 -1.54167,6.16667 z m -83.91071,-3.08333 c -0.48452,0 -0.88095,-1.3875 -0.88095,-3.08334 0,-2.05555 1.02777,-3.08333 3.08333,-3.08333 1.69583,0 3.08333,0.39643 3.08333,0.88095 0,0.48453 -0.99107,1.87203 -2.20238,3.08334 -1.21131,1.21131 -2.59881,2.20238 -3.08333,2.20238 z m 4.12946,-9.30864 c -0.63593,-0.0323 -2.16784,-1.19818 -3.40422,-2.59095 -1.65973,-1.86966 -1.76059,-2.69478 -0.38542,-3.15317 1.02441,-0.34147 1.86256,-1.95054 1.86256,-3.57572 0,-1.62517 0.69375,-2.95486 1.54167,-2.95486 0.84791,0 1.54166,1.32969 1.54166,2.95486 0,1.62518 -0.86718,3.35955 -1.92708,3.85417 -1.54167,0.71945 -1.54167,1.07917 0,1.79861 1.0599,0.49462 1.92708,1.53525 1.92708,2.3125 0,0.77726 -0.52031,1.38681 -1.15625,1.35456 z m 70.91667,-3.08334 c -0.63594,-0.0322 -2.09342,-1.11851 -3.23886,-2.41392 -1.14543,-1.2954 -1.69878,-2.7391 -1.22966,-3.20822 0.46912,-0.46912 1.9266,0.22071 3.23886,1.53297 1.31225,1.31225 2.38591,2.78234 2.38591,3.26686 0,0.48452 -0.52031,0.85456 -1.15625,0.82231 z m 5.78125,0.0586 c -0.84792,0 -1.54167,-0.69375 -1.54167,-1.54166 0,-0.84792 0.69375,-1.54167 1.54167,-1.54167 0.84792,0 1.54167,0.69375 1.54167,1.54167 0,0.84791 -0.69375,1.54166 -1.54167,1.54166 z m -71.57738,-9.25 c -0.48452,0 -0.88095,-0.69375 -0.88095,-1.54166 0,-0.84792 0.69375,-1.54167 1.54166,-1.54167 0.84792,0 1.54167,-1.3875 1.54167,-3.08333 0,-1.69584 0.69375,-3.08334 1.54167,-3.08334 0.84791,0 1.54166,1.09018 1.54166,2.42262 0,1.33244 -0.99107,3.41369 -2.20238,4.625 -1.21131,1.21131 -2.59881,2.20238 -3.08333,2.20238 z m 49.99405,0 c -6.16667,0 -10.79167,-0.66071 -10.79167,-1.54166 0,-0.85649 -4.11111,-1.54167 -9.25,-1.54167 -8.22222,0 -9.25,-0.34259 -9.25,-3.08333 0,-1.69584 0.63594,-3.08334 1.41319,-3.08334 0.77726,0 1.76507,0.86719 2.19514,1.92709 0.59036,1.45495 1.21714,1.36053 2.55834,-0.38542 1.34119,-1.74595 1.96797,-1.84037 2.55834,-0.38542 0.43438,1.07054 3.40869,1.92709 6.69166,1.92709 3.28296,0 6.25727,0.85655 6.69166,1.92708 0.58877,1.45104 1.19176,1.35583 2.44097,-0.38542 1.4747,-2.05555 1.84337,-2.05555 3.31807,0 1.2492,1.74125 1.85219,1.83646 2.44097,0.38542 0.43007,-1.0599 1.8143,-1.92708 3.07608,-1.92708 1.26178,0 3.28522,0.99107 4.49653,2.20238 1.21131,1.21131 2.20238,2.59881 2.20238,3.08333 0,0.48452 -4.85625,0.88095 -10.79166,0.88095 z m 15.41666,0 c -0.84791,0 -1.54166,-0.69375 -1.54166,-1.54166 0,-0.84792 0.69375,-1.54167 1.54166,-1.54167 0.84792,0 1.54167,0.69375 1.54167,1.54167 0,0.84791 -0.69375,1.54166 -1.54167,1.54166 z m -49.33333,-3.08333 c -0.84792,0 -1.54167,-0.69375 -1.54167,-1.54167 0,-0.84791 -1.3875,-1.54166 -3.08333,-1.54166 -1.69583,0 -3.08333,-0.69375 -3.08333,-1.54167 0,-0.84792 2.08125,-1.54167 4.625,-1.54167 3.59722,0 4.625,0.68519 4.625,3.08334 0,1.69583 -0.69375,3.08333 -1.54167,3.08333 z m 6.16667,-12.33333 c -0.84792,0 -1.54167,-0.69375 -1.54167,-1.54167 0,-0.84792 0.69375,-1.54167 1.54167,-1.54167 0.84791,0 1.54166,0.69375 1.54166,1.54167 0,0.84792 -0.69375,1.54167 -1.54166,1.54167 z m -6.16667,-3.08334 c -0.84792,0 -1.54167,-0.69375 -1.54167,-1.54166 0,-0.84792 0.69375,-1.54167 1.54167,-1.54167 0.84792,0 1.54167,0.69375 1.54167,1.54167 0,0.84791 -0.69375,1.54166 -1.54167,1.54166 z" id="path3931" style="fill:#6d482b" />
      <path d="m 587.44641,719.01698 c -0.84792,0 -1.54167,-0.69375 -1.54167,-1.54166 0,-0.84792 -2.775,-1.54167 -6.16666,-1.54167 -3.39167,0 -6.16667,-0.69375 -6.16667,-1.54167 0,-0.84791 3.46875,-1.54166 7.70833,-1.54166 6.68056,0 7.70834,0.41111 7.70834,3.08333 0,1.69583 -0.69375,3.08333 -1.54167,3.08333 z m -53.95833,-3.08333 c -2.05556,0 -3.08334,-1.02778 -3.08334,-3.08333 0,-2.74074 1.02778,-3.08334 9.25,-3.08334 5.13889,0 9.25,0.68519 9.25,1.54167 0,0.84792 -2.775,1.54167 -6.16666,1.54167 -3.39167,0 -6.16667,0.69375 -6.16667,1.54166 0,0.84792 -1.3875,1.54167 -3.08333,1.54167 z" id="path3929" style="fill:#6a3718" />
      <path d="m 532.33183,789.82769 c -0.63594,-0.0583 -3.41094,-2.46669 -6.16667,-5.35203 -2.75573,-2.88534 -5.01042,-6.70284 -5.01042,-8.48333 0,-1.78049 -1.05212,-4.28938 -2.33806,-5.57531 -2.08963,-2.08964 -2.81057,-1.83223 -6.78519,2.42262 -2.76292,2.95771 -5.96447,4.76068 -8.45361,4.76068 -2.20356,0 -4.00647,-0.69375 -4.00647,-1.54167 0,-0.84792 1.75263,-1.54167 3.89474,-1.54167 2.55703,0 6.26358,-2.36884 10.79166,-6.89693 4.40392,-4.40391 6.89693,-8.25831 6.89693,-10.66319 0,-2.07145 -0.86718,-4.17095 -1.92708,-4.66557 -1.54167,-0.71945 -1.54167,-1.07917 0,-1.79861 1.0599,-0.49462 1.92708,-2.229 1.92708,-3.85417 0,-1.62517 -0.69375,-2.95486 -1.54166,-2.95486 -0.84792,0 -1.54167,-3.46875 -1.54167,-7.70833 0,-4.23959 -0.69375,-7.70834 -1.54167,-7.70834 -0.84791,0 -1.54166,-3.46875 -1.54166,-7.70833 0,-4.23958 -0.69375,-7.70833 -1.54167,-7.70833 -0.84792,0 -1.54167,-1.3875 -1.54167,-3.08334 0,-1.69583 -0.39643,-3.08333 -0.88095,-3.08333 -0.48452,0 -1.87202,0.99107 -3.08333,2.20238 -1.21131,1.21131 -2.20238,3.29256 -2.20238,4.625 0,1.33244 0.63593,2.42262 1.41319,2.42262 0.77726,0 1.72291,-0.86719 2.10144,-1.92708 0.40032,-1.1209 1.26025,-1.35508 2.05556,-0.55977 0.7953,0.7953 0.56112,1.65523 -0.55978,2.05555 -1.0965,0.39161 -1.92708,3.29072 -1.92708,6.72644 0,3.32101 0.69375,6.03819 1.54167,6.03819 0.84791,0 1.54166,1.32969 1.54166,2.95486 0,1.62518 0.86719,3.26458 1.92709,3.64311 1.05989,0.37853 1.44881,1.20368 0.86426,1.83365 -0.58454,0.62997 -2.83923,-0.63102 -5.01041,-2.8022 -2.75112,-2.75112 -3.9476,-5.60426 -3.9476,-9.41351 0,-3.00625 -0.69375,-5.46591 -1.54167,-5.46591 -0.84792,0 -1.54167,-2.47768 -1.54167,-5.50595 0,-3.02827 0.99107,-6.49702 2.20238,-7.70833 1.21131,-1.21131 3.29256,-2.20238 4.625,-2.20238 1.87937,0 2.42262,-1.72854 2.42262,-7.70834 0,-4.23958 -0.69375,-7.70833 -1.54166,-7.70833 -0.85648,0 -1.54167,-4.11111 -1.54167,-9.25 0,-5.13889 0.68519,-9.25 1.54167,-9.25 0.84791,0 1.54166,-2.45966 1.54166,-5.46591 0,-3.74775 1.18949,-6.6554 3.78409,-9.25 2.08125,-2.08125 4.85625,-3.78409 6.16667,-3.78409 1.31042,0 2.38258,-0.69375 2.38258,-1.54167 0,-0.84791 1.3875,-1.54166 3.08333,-1.54166 1.69583,0 3.08333,-0.69375 3.08333,-1.54167 0,-0.84792 1.32969,-1.54167 2.95486,-1.54167 1.62518,0 3.30674,-0.86718 3.7368,-1.92708 0.59037,-1.45496 1.21715,-1.36053 2.55834,0.38542 1.3412,1.74595 1.96798,1.84037 2.55834,0.38541 0.53299,-1.31354 4.66772,-1.92708 12.9868,-1.92708 7.1088,0 12.20486,0.64371 12.20486,1.54167 0,0.84791 2.775,1.54166 6.16667,1.54166 3.39167,0 6.16667,0.69375 6.16667,1.54167 0,0.84792 1.7575,1.54167 3.90555,1.54167 2.40079,0 5.96472,2.05916 9.25,5.34444 2.93945,2.93945 5.34445,6.4082 5.34445,7.70833 0,1.30014 0.69375,2.36389 1.54166,2.36389 0.84792,0 1.54167,1.3875 1.54167,3.08334 0,1.69583 0.69375,3.08333 1.54167,3.08333 0.84791,0 1.54166,1.3875 1.54166,3.08333 0,1.69584 0.69375,3.08334 1.54167,3.08334 0.85648,0 1.54167,4.11111 1.54167,9.25 0,5.13889 -0.68519,9.25 -1.54167,9.25 -0.84792,0 -1.54167,2.08125 -1.54167,4.625 0,2.54375 -0.69375,4.625 -1.54166,4.625 -0.84792,0 -1.54167,3.46875 -1.54167,7.70833 0,4.23958 0.69375,7.70833 1.54167,7.70833 0.84791,0 1.54166,1.3875 1.54166,3.08334 0,1.69583 -0.69375,3.08333 -1.54166,3.08333 -0.84792,0 -1.54167,-0.69375 -1.54167,-1.54167 0,-0.84791 -1.3875,-1.54166 -3.08333,-1.54166 -2.67223,0 -3.08334,1.02777 -3.08334,7.70833 0,4.23958 0.69375,7.70833 1.54167,7.70833 0.84792,0 1.54167,-2.08125 1.54167,-4.625 0,-3.59722 0.68518,-4.625 3.08333,-4.625 1.69583,0 3.08333,0.69375 3.08333,1.54167 0,0.84792 -0.69375,1.54167 -1.54166,1.54167 -0.84792,0 -1.54167,1.3875 -1.54167,3.08333 0,1.69583 -0.69375,3.08333 -1.54167,3.08333 -0.84791,0 -1.54166,1.3875 -1.54166,3.08334 0,1.69583 -0.69375,3.08333 -1.54167,3.08333 -0.84792,0 -1.54167,-0.69375 -1.54167,-1.54167 0,-0.84791 -0.69375,-1.54166 -1.54166,-1.54166 -0.84792,0 -1.54167,2.775 -1.54167,6.16666 0,3.39167 -0.69375,6.16667 -1.54167,6.16667 -0.84791,0 -1.54166,2.08125 -1.54166,4.625 0,4.625 0,4.625 9.25,4.625 5.13889,0 9.25,0.68518 9.25,1.54167 0,0.84791 1.74945,1.54166 3.88768,1.54166 2.65491,0 6.56576,2.67808 12.33333,8.44566 5.76758,5.76757 8.44565,9.67841 8.44565,12.33333 0,2.13822 -0.69375,3.88768 -1.54166,3.88768 -0.84792,0 -1.54167,-1.75263 -1.54167,-3.89474 0,-2.55703 -2.36885,-6.26358 -6.89693,-10.79166 -4.52808,-4.52809 -8.23463,-6.89693 -10.79167,-6.89693 -2.1421,0 -3.89473,-0.69375 -3.89473,-1.54167 0,-0.89931 -5.13889,-1.54167 -12.33334,-1.54167 -11.30555,0 -12.33333,0.25695 -12.33333,3.08334 0,1.69583 -0.69375,3.08333 -1.54167,3.08333 -0.84791,0 -1.54166,1.23435 -1.54166,2.743 0,1.50864 -1.3875,3.74305 -3.08334,4.96533 -1.69583,1.22229 -3.08333,3.15937 -3.08333,4.30463 0,1.14525 -1.07366,3.15594 -2.38591,4.46819 -1.31226,1.31225 -2.87319,1.86147 -3.46875,1.22049 -0.59556,-0.64099 -0.21565,-1.47514 0.84424,-1.85367 1.0599,-0.37854 1.92709,-1.32419 1.92709,-2.10144 0,-0.77726 -5.55,-1.4132 -12.33334,-1.4132 -7.19444,0 -12.33333,-0.64236 -12.33333,-1.54166 0,-0.84792 -1.09018,-1.54167 -2.42262,-1.54167 -1.33244,0 -3.41369,-0.99107 -4.625,-2.20238 -1.21131,-1.21131 -2.20238,-3.29256 -2.20238,-4.625 0,-1.33244 -1.23435,-2.42262 -2.743,-2.42262 -1.50864,0 -3.74305,-1.3875 -4.96533,-3.08333 -1.22229,-1.69584 -3.45669,-3.08334 -4.96534,-3.08334 -1.50865,0 -2.743,0.69375 -2.743,1.54167 0,0.84792 0.69375,1.54167 1.54167,1.54167 0.84792,0 1.54167,2.775 1.54167,6.16666 0,5.13889 0.51389,6.16667 3.08333,6.16667 2.05556,0 3.08333,1.02778 3.08333,3.08333 0,1.69584 0.69375,3.08334 1.54167,3.08334 0.84792,0 1.54167,0.69375 1.54167,1.54166 0,0.84792 -0.52032,1.49399 -1.15625,1.43571 z m 25.82291,-9.14404 c 9.25,0 9.25,0 9.25,-6.16667 0,-3.39166 0.69375,-6.16666 1.54167,-6.16666 0.84792,0 1.54167,2.08125 1.54167,4.625 0,2.54375 0.69375,4.625 1.54166,4.625 0.84792,0 1.54167,-1.3875 1.54167,-3.08334 0,-1.69583 0.69375,-3.08333 1.54167,-3.08333 0.84791,0 1.54166,-1.3875 1.54166,-3.08333 0,-1.69584 0.69375,-3.08334 1.54167,-3.08334 0.84792,0 1.54167,-1.32968 1.54167,-2.95486 0,-1.62517 0.86718,-3.35955 1.92708,-3.85416 1.54167,-0.71945 1.54167,-1.07917 0,-1.79862 -1.0599,-0.49461 -1.92708,-1.53524 -1.92708,-2.3125 0,-0.77725 1.09018,-1.41319 2.42262,-1.41319 1.33244,0 3.5262,-1.10358 4.87502,-2.45241 2.089,-2.089 2.1298,-2.67752 0.2753,-3.97153 -1.66988,-1.1652 -1.72813,-1.70131 -0.25003,-2.30107 1.0599,-0.43006 1.92709,-2.11162 1.92709,-3.7368 0,-1.62517 0.69375,-2.95486 1.54166,-2.95486 0.84792,0 1.54167,-3.46875 1.54167,-7.70833 0,-4.23958 0.69375,-7.70833 1.54167,-7.70833 0.84791,0 1.54166,-2.08125 1.54166,-4.625 0,-2.54375 -0.69375,-4.625 -1.54166,-4.625 -0.84792,0 -1.54167,-1.3875 -1.54167,-3.08334 0,-1.69583 0.69375,-3.08333 1.54167,-3.08333 0.84791,0 1.54166,-1.32969 1.54166,-2.95486 0,-1.62517 -0.86718,-3.35955 -1.92708,-3.85417 -1.54167,-0.71944 -1.54167,-1.07916 0,-1.79861 1.0599,-0.49462 1.92708,-2.22899 1.92708,-3.85417 0,-1.62517 -0.69375,-2.95486 -1.54166,-2.95486 -0.84792,0 -1.54167,-1.32968 -1.54167,-2.95486 0,-1.62517 0.86719,-3.35955 1.92708,-3.85416 1.54167,-0.71945 1.54167,-1.07917 0,-1.79862 -1.05989,-0.49461 -1.92708,-2.17118 -1.92708,-3.72569 0,-1.55451 -0.86719,-3.17826 -1.92708,-3.60833 -1.47811,-0.59976 -1.41986,-1.13586 0.25002,-2.30106 1.84319,-1.28613 1.77282,-1.92343 -0.45883,-4.15507 -1.44976,-1.44976 -3.12321,-2.1115 -3.71877,-1.47051 -0.59556,0.64098 -0.21565,1.47514 0.84424,1.85367 1.0599,0.37853 1.92709,1.32418 1.92709,2.10144 0,0.77726 -1.3875,1.41319 -3.08334,1.41319 -1.69583,0 -3.08333,-0.69375 -3.08333,-1.54166 0,-0.88096 -4.625,-1.54167 -10.79167,-1.54167 -6.16666,0 -10.79166,-0.66071 -10.79166,-1.54167 0,-0.9201 -5.93308,-1.54166 -14.71591,-1.54166 -13.56874,0 -15.0109,0.29498 -18.5,3.78409 -2.08125,2.08125 -3.78409,4.85625 -3.78409,6.16666 0,1.31042 0.43894,2.38258 0.97542,2.38258 0.53648,0 2.30991,-1.53868 3.94096,-3.4193 2.49953,-2.88199 3.19416,-3.06368 4.42041,-1.15625 1.2787,1.98902 1.6314,1.98843 2.91271,-0.005 0.80182,-1.24731 1.92503,-1.80066 2.49604,-1.22966 0.571,0.57101 -0.14799,2.22436 -1.59775,3.67413 -2.09695,2.09695 -2.89084,2.22351 -3.8825,0.61897 -0.95236,-1.54095 -2.1928,-1.07073 -5.25592,1.9924 -2.20516,2.20512 -4.00937,5.71743 -4.00937,7.80511 0,2.08767 0.86099,4.08277 1.91331,4.43354 1.36599,0.45533 1.12448,1.42662 -0.84424,3.39534 -1.51666,1.51666 -3.24484,2.23312 -3.8404,1.59214 -0.59556,-0.64099 -0.21565,-1.47514 0.84424,-1.85367 1.0599,-0.37854 1.92709,-1.32419 1.92709,-2.10144 0,-0.77726 -1.3875,-1.4132 -3.08334,-1.4132 -2.05555,0 -3.08333,1.02778 -3.08333,3.08334 0,1.69583 0.69375,3.08333 1.54167,3.08333 0.84791,0 1.54166,2.08125 1.54166,4.625 0,2.54375 -0.69375,4.625 -1.54166,4.625 -0.84792,0 -1.54167,2.08125 -1.54167,4.625 0,2.54375 0.69375,4.625 1.54167,4.625 0.84791,0 1.54166,2.02344 1.54166,4.49653 0,2.47309 0.86719,4.8484 1.92709,5.27846 1.45104,0.58878 1.35583,1.19177 -0.38542,2.44097 -2.05556,1.4747 -2.05556,1.83034 0,3.20071 2.05556,1.37037 2.05556,1.726 0,3.2007 -1.74125,1.2492 -1.83646,1.85219 -0.38542,2.44097 1.0599,0.43007 1.92709,2.74756 1.92709,5.14999 0,2.40243 0.86718,4.77275 1.92708,5.26736 1.54167,0.71945 1.54167,1.07917 0,1.79862 -1.0599,0.49461 -1.92708,2.17118 -1.92708,3.72569 0,1.55451 0.86718,3.23108 1.92708,3.72569 1.54167,0.71945 1.54167,1.07917 0,1.79862 -1.0599,0.49461 -1.92708,1.53524 -1.92708,2.3125 0,0.77725 1.3875,1.41319 3.08333,1.41319 2.05556,0 3.08333,1.02778 3.08333,3.08333 0,1.69584 0.69375,3.08334 1.54167,3.08334 0.84792,0 1.54167,-2.08125 1.54167,-4.625 0,-2.54375 -0.69375,-4.625 -1.54167,-4.625 -0.84792,0 -1.54167,-2.775 -1.54167,-6.16667 0,-3.39167 0.69375,-6.16667 1.54167,-6.16667 0.84792,0 1.54167,2.08125 1.54167,4.625 0,2.54375 0.69375,4.625 1.54166,4.625 0.84792,0 1.54167,2.62185 1.54167,5.82633 0,4.05777 0.93593,6.50091 3.08333,8.04867 1.69584,1.22229 3.08334,3.45669 3.08334,4.96534 0,1.71522 1.1553,2.743 3.08333,2.743 1.69583,0 3.08333,0.69375 3.08333,1.54166 0,0.85649 4.11111,1.54167 9.25,1.54167 z m -10.79166,-6.16667 c -0.84792,0 -1.54167,-1.3875 -1.54167,-3.08333 0,-1.69583 0.69375,-3.08333 1.54167,-3.08333 0.84791,0 1.54166,1.3875 1.54166,3.08333 0,1.69583 -0.69375,3.08333 -1.54166,3.08333 z m 15.41666,-3.08333 c -0.84791,0 -1.54166,-0.69375 -1.54166,-1.54167 0,-0.84791 0.69375,-1.54166 1.54166,-1.54166 0.84792,0 1.54167,0.69375 1.54167,1.54166 0,0.84792 -0.69375,1.54167 -1.54167,1.54167 z m -9.25,-3.08333 c -0.84791,0 -1.54166,-0.69375 -1.54166,-1.54167 0,-0.84792 0.69375,-1.54167 1.54166,-1.54167 0.84792,0 1.54167,0.69375 1.54167,1.54167 0,0.84792 -0.69375,1.54167 -1.54167,1.54167 z m -9.25,-3.08334 c -0.84791,0 -1.54166,-0.69375 -1.54166,-1.54166 0,-0.84792 0.69375,-1.54167 1.54166,-1.54167 0.84792,0 1.54167,0.69375 1.54167,1.54167 0,0.84791 -0.69375,1.54166 -1.54167,1.54166 z m 15.41667,0 c -0.84792,0 -1.54167,-1.3875 -1.54167,-3.08333 0,-1.69583 0.69375,-3.08333 1.54167,-3.08333 0.84792,0 1.54167,1.3875 1.54167,3.08333 0,1.69583 -0.69375,3.08333 -1.54167,3.08333 z m 10.13095,-6.16666 c -1.33244,0 -2.42262,-0.69375 -2.42262,-1.54167 0,-0.89931 -5.13889,-1.54167 -12.33333,-1.54167 -7.19444,0 -12.33333,-0.64236 -12.33333,-1.54166 0,-0.93435 6.68055,-1.54167 16.95833,-1.54167 9.32708,0 16.95833,0.39643 16.95833,0.88095 0,0.48453 -0.99107,1.87203 -2.20238,3.08334 -1.21131,1.21131 -3.29256,2.20238 -4.625,2.20238 z m -26.20833,-9.25 c -0.48452,0 -0.88095,-0.39643 -0.88095,-0.88096 0,-0.48452 1.07366,-1.95461 2.38591,-3.26686 1.31225,-1.31225 2.78234,-1.98948 3.26686,-1.50496 0.48453,0.48452 -0.1927,1.95461 -1.50496,3.26686 -1.31225,1.31226 -2.78234,2.38592 -3.26686,2.38592 z m 31.49405,0 c -0.84792,0 -1.54167,-0.69375 -1.54167,-1.54167 0,-0.84792 0.69375,-1.54167 1.54167,-1.54167 0.84791,0 1.54166,0.69375 1.54166,1.54167 0,0.84792 -0.69375,1.54167 -1.54166,1.54167 z m 6.16666,0 c -0.84791,0 -1.54166,-0.69375 -1.54166,-1.54167 0,-0.84792 0.69375,-1.54167 1.54166,-1.54167 0.84792,0 1.54167,0.69375 1.54167,1.54167 0,0.84792 -0.69375,1.54167 -1.54167,1.54167 z m -27.75,-3.08334 c -0.84791,0 -1.54166,-1.09018 -1.54166,-2.42262 0,-1.33244 1.07366,-3.49628 2.38591,-4.80853 1.31225,-1.31225 2.87319,-1.86147 3.46875,-1.22048 0.59556,0.64098 0.21565,1.47513 -0.84425,1.85367 -1.05989,0.37853 -1.92708,2.01793 -1.92708,3.6431 0,1.62518 -0.69375,2.95486 -1.54167,2.95486 z m 6.16667,0 c -0.84792,0 -1.54167,-0.69375 -1.54167,-1.54166 0,-0.84792 0.69375,-1.54167 1.54167,-1.54167 0.84792,0 1.54167,0.69375 1.54167,1.54167 0,0.84791 -0.69375,1.54166 -1.54167,1.54166 z m 7.70833,0 c -2.05555,0 -3.08333,-1.02777 -3.08333,-3.08333 0,-2.05556 1.02778,-3.08333 3.08333,-3.08333 1.69584,0 3.08334,-0.63594 3.08334,-1.4132 0,-0.77725 -0.86719,-1.76506 -1.92709,-2.19513 -1.45928,-0.59212 -1.37772,-1.1636 0.33597,-2.35418 1.90981,-1.32683 1.67689,-2.08061 -1.49222,-4.82916 -3.1691,-2.74855 -3.40202,-3.50233 -1.49221,-4.82916 1.71368,-1.19058 1.79524,-1.76206 0.33596,-2.35418 -1.08055,-0.43845 -1.92708,-3.43439 -1.92708,-6.82013 0,-3.32101 0.69375,-6.0382 1.54167,-6.0382 0.84791,0 1.54166,2.08125 1.54166,4.625 0,2.54375 0.69375,4.625 1.54167,4.625 0.84792,0 1.54167,2.775 1.54167,6.16667 0,3.39167 0.69375,6.16667 1.54166,6.16667 0.84792,0 1.54167,2.08125 1.54167,4.625 0,2.54375 -0.69375,4.625 -1.54167,4.625 -0.84791,0 -1.54166,1.3875 -1.54166,3.08333 0,2.05556 -1.02778,3.08333 -3.08334,3.08333 z m -38.54166,-3.08333 c -0.84792,0 -1.54167,-0.69375 -1.54167,-1.54167 0,-0.84791 0.69375,-1.54166 1.54167,-1.54166 0.84791,0 1.54166,0.69375 1.54166,1.54166 0,0.84792 -0.69375,1.54167 -1.54166,1.54167 z m 9.25,0 c -0.84792,0 -1.54167,-0.69375 -1.54167,-1.54167 0,-0.84791 0.69375,-1.54166 1.54167,-1.54166 0.84791,0 1.54166,0.69375 1.54166,1.54166 0,0.84792 -0.69375,1.54167 -1.54166,1.54167 z m 43.16666,-3.08333 c -0.84791,0 -1.54166,-0.69375 -1.54166,-1.54167 0,-0.84792 0.69375,-1.54167 1.54166,-1.54167 0.84792,0 1.54167,0.69375 1.54167,1.54167 0,0.84792 -0.69375,1.54167 -1.54167,1.54167 z m -46.25,-3.08334 c -0.84791,0 -1.54166,-0.69375 -1.54166,-1.54166 0,-0.84792 0.69375,-1.54167 1.54166,-1.54167 0.84792,0 1.54167,0.69375 1.54167,1.54167 0,0.84791 -0.69375,1.54166 -1.54167,1.54166 z m 14.71591,0 c -0.4625,0 -0.84091,-1.32968 -0.84091,-2.95486 0,-1.62517 0.86719,-3.30673 1.92709,-3.7368 1.45826,-0.5917 1.37536,-1.16515 -0.34077,-2.35714 -1.24732,-0.86637 -1.72991,-2.11316 -1.07243,-2.77064 0.65749,-0.65749 1.90427,-0.17489 2.77064,1.07242 1.192,1.71614 1.76544,1.79904 2.35715,0.34077 0.43006,-1.05989 1.41787,-1.92708 2.19513,-1.92708 0.77726,0 1.41319,1.07216 1.41319,2.38258 0,1.31041 -1.70284,4.08541 -3.78409,6.16666 -2.08125,2.08125 -4.1625,3.78409 -4.625,3.78409 z m 13.03409,-3.08333 c -0.84791,0 -1.54166,-0.69375 -1.54166,-1.54167 0,-0.84791 0.69375,-1.54166 1.54166,-1.54166 0.84792,0 1.54167,0.69375 1.54167,1.54166 0,0.84792 -0.69375,1.54167 -1.54167,1.54167 z m 18.5,0 c -0.84791,0 -1.54166,-0.69375 -1.54166,-1.54167 0,-0.84791 0.69375,-1.54166 1.54166,-1.54166 0.84792,0 1.54167,0.69375 1.54167,1.54166 0,0.84792 -0.69375,1.54167 -1.54167,1.54167 z m -49.33333,-3.08333 c -0.84792,0 -1.54167,-0.69375 -1.54167,-1.54167 0,-0.84792 0.69375,-1.54167 1.54167,-1.54167 0.84792,0 1.54167,0.69375 1.54167,1.54167 0,0.84792 -0.69375,1.54167 -1.54167,1.54167 z m 20.92262,-9.25 c -0.48452,0 -0.88095,-0.69375 -0.88095,-1.54167 0,-0.84792 0.69375,-1.54167 1.54166,-1.54167 0.84792,0 1.54167,-1.3875 1.54167,-3.08333 0,-1.69583 0.69375,-3.08333 1.54167,-3.08333 0.84791,0 1.54166,1.09018 1.54166,2.42262 0,1.33244 -0.99107,3.41369 -2.20238,4.625 -1.21131,1.21131 -2.59881,2.20238 -3.08333,2.20238 z m -2.42262,-6.16667 c -0.84792,0 -1.54167,-0.69375 -1.54167,-1.54167 0,-0.84791 0.69375,-1.54166 1.54167,-1.54166 0.84792,0 1.54167,0.69375 1.54167,1.54166 0,0.84792 -0.69375,1.54167 -1.54167,1.54167 z m -27.75,-3.08333 c -0.84792,0 -1.54167,-1.3875 -1.54167,-3.08334 0,-1.69583 0.69375,-3.08333 1.54167,-3.08333 0.84792,0 1.54167,-1.3875 1.54167,-3.08333 0,-2.37857 1.02777,-3.08334 4.49652,-3.08334 2.47309,0 4.90122,-0.86718 5.39584,-1.92708 0.71944,-1.54167 1.07916,-1.54167 1.79861,0 0.49494,1.06058 3.61435,1.92708 6.9375,1.92708 3.32101,0 6.03819,0.69375 6.03819,1.54167 0,0.84792 1.3875,1.54167 3.08334,1.54167 1.69583,0 3.08333,0.69375 3.08333,1.54166 0,0.84792 -3.46875,1.54167 -7.70833,1.54167 -4.23959,0 -7.70834,-0.69375 -7.70834,-1.54167 0,-0.84791 -2.08125,-1.54166 -4.625,-1.54166 -2.54375,0 -4.625,0.69375 -4.625,1.54166 0,0.84792 -1.3875,1.54167 -3.08333,1.54167 -2.05556,0 -3.08333,1.02778 -3.08333,3.08333 0,1.69584 -0.69375,3.08334 -1.54167,3.08334 z m 53.95833,-3.08334 c -5.13889,0 -6.16666,-0.51389 -6.16666,-3.08333 0,-2.78968 1.02777,-3.08333 10.79166,-3.08333 6.16667,0 10.79167,0.66071 10.79167,1.54166 0,0.84792 -2.08125,1.54167 -4.625,1.54167 -2.54375,0 -4.625,0.69375 -4.625,1.54167 0,0.84791 -2.775,1.54166 -6.16667,1.54166 z m 7.70834,-12.33333 c -0.84792,0 -1.54167,-0.69375 -1.54167,-1.54167 0,-0.84791 0.69375,-1.54166 1.54167,-1.54166 0.84791,0 1.54166,0.69375 1.54166,1.54166 0,0.84792 -0.69375,1.54167 -1.54166,1.54167 z m -46.25,-6.16667 c -0.84792,0 -1.54167,-0.69375 -1.54167,-1.54166 0,-0.84792 0.69375,-1.54167 1.54167,-1.54167 0.84791,0 1.54166,0.69375 1.54166,1.54167 0,0.84791 -0.69375,1.54166 -1.54166,1.54166 z m 18.5,0 c -0.84792,0 -1.54167,-0.69375 -1.54167,-1.54166 0,-0.84792 0.69375,-1.54167 1.54167,-1.54167 0.84791,0 1.54166,0.69375 1.54166,1.54167 0,0.84791 -0.69375,1.54166 -1.54166,1.54166 z m 15.41666,0 c -0.84791,0 -1.54166,-0.69375 -1.54166,-1.54166 0,-0.84792 0.69375,-1.54167 1.54166,-1.54167 0.84792,0 1.54167,0.69375 1.54167,1.54167 0,0.84791 -0.69375,1.54166 -1.54167,1.54166 z m 9.25,0 c -0.84791,0 -1.54166,-0.69375 -1.54166,-1.54166 0,-0.84792 0.69375,-1.54167 1.54166,-1.54167 0.84792,0 1.54167,0.69375 1.54167,1.54167 0,0.84791 -0.69375,1.54166 -1.54167,1.54166 z m 6.16667,0 c -0.84792,0 -1.54167,-0.69375 -1.54167,-1.54166 0,-0.84792 0.69375,-1.54167 1.54167,-1.54167 0.84792,0 1.54167,0.69375 1.54167,1.54167 0,0.84791 -0.69375,1.54166 -1.54167,1.54166 z m -21.58333,-3.08333 c -0.84792,0 -1.54167,-0.69375 -1.54167,-1.54167 0,-0.84791 0.69375,-1.54166 1.54167,-1.54166 0.84791,0 1.54166,0.69375 1.54166,1.54166 0,0.84792 -0.69375,1.54167 -1.54166,1.54167 z m -33.91667,-3.08333 c -0.84792,0 -1.54167,-0.69375 -1.54167,-1.54167 0,-0.84792 0.69375,-1.54167 1.54167,-1.54167 0.84792,0 1.54167,0.69375 1.54167,1.54167 0,0.84792 -0.69375,1.54167 -1.54167,1.54167 z m 6.16667,0 c -0.84792,0 -1.54167,-0.69375 -1.54167,-1.54167 0,-0.84792 0.69375,-1.54167 1.54167,-1.54167 0.84791,0 1.54166,0.69375 1.54166,1.54167 0,0.84792 -0.69375,1.54167 -1.54166,1.54167 z m 49.33333,0 c -0.84792,0 -1.54167,-1.32969 -1.54167,-2.95486 0,-1.62518 -0.86718,-3.26458 -1.92708,-3.64311 -1.0599,-0.37853 -1.43981,-1.21269 -0.84425,-1.85367 0.59556,-0.64099 2.1565,-0.0918 3.46875,1.22049 1.31226,1.31225 2.38592,3.47609 2.38592,4.80853 0,1.33244 -0.69375,2.42262 -1.54167,2.42262 z m -43.16667,-3.08334 c -0.84791,0 -1.54166,-0.69375 -1.54166,-1.54166 0,-0.84792 0.69375,-1.54167 1.54166,-1.54167 0.84792,0 1.54167,0.69375 1.54167,1.54167 0,0.84791 -0.69375,1.54166 -1.54167,1.54166 z m 30.83334,0 c -0.84792,0 -1.54167,-0.69375 -1.54167,-1.54166 0,-0.84792 0.69375,-1.54167 1.54167,-1.54167 0.84791,0 1.54166,0.69375 1.54166,1.54167 0,0.84791 -0.69375,1.54166 -1.54166,1.54166 z m -18.5,-3.08333 c -0.84792,0 -1.54167,-0.69375 -1.54167,-1.54167 0,-0.84791 0.69375,-1.54166 1.54167,-1.54166 0.84791,0 1.54166,0.69375 1.54166,1.54166 0,0.84792 -0.69375,1.54167 -1.54166,1.54167 z m 12.33333,0 c -0.84792,0 -1.54167,-0.69375 -1.54167,-1.54167 0,-0.84791 0.69375,-1.54166 1.54167,-1.54166 0.84792,0 1.54167,0.69375 1.54167,1.54166 0,0.84792 -0.69375,1.54167 -1.54167,1.54167 z m 30.83333,18.5 c 0.84792,0 1.54167,-1.3875 1.54167,-3.08333 0,-1.69584 -0.69375,-3.08334 -1.54167,-3.08334 -0.84791,0 -1.54166,1.3875 -1.54166,3.08334 0,1.69583 0.69375,3.08333 1.54166,3.08333 z m 0,-9.25 c 0.84792,0 1.54167,-2.775 1.54167,-6.16667 0,-3.39166 -0.69375,-6.16666 -1.54167,-6.16666 -0.84791,0 -1.54166,2.775 -1.54166,6.16666 0,3.39167 0.69375,6.16667 1.54166,6.16667 z m -83.91071,-3.08333 c 0.48452,0 1.87202,-0.99107 3.08333,-2.20238 1.21131,-1.21131 2.20238,-2.59881 2.20238,-3.08334 0,-0.48452 -1.3875,-0.88095 -3.08333,-0.88095 -2.05556,0 -3.08333,1.02778 -3.08333,3.08333 0,1.69584 0.39643,3.08334 0.88095,3.08334 z m 4.12946,-9.30864 c 0.63594,0.0322 1.15625,-0.5773 1.15625,-1.35456 0,-0.77725 -0.86718,-1.81788 -1.92708,-2.3125 -1.54167,-0.71944 -1.54167,-1.07916 0,-1.79861 1.0599,-0.49462 1.92708,-2.22899 1.92708,-3.85417 0,-1.62517 -0.69375,-2.95486 -1.54166,-2.95486 -0.84792,0 -1.54167,1.32969 -1.54167,2.95486 0,1.62518 -0.83815,3.23425 -1.86256,3.57572 -1.37517,0.45839 -1.27431,1.28351 0.38542,3.15317 1.23638,1.39277 2.76829,2.55869 3.40422,2.59095 z m 76.69792,-3.0247 c 0.84792,0 1.54167,-0.69375 1.54167,-1.54166 0,-0.84792 -0.69375,-1.54167 -1.54167,-1.54167 -0.84792,0 -1.54167,0.69375 -1.54167,1.54167 0,0.84791 0.69375,1.54166 1.54167,1.54166 z m -71.57738,-9.25 c 0.48452,0 1.87202,-0.99107 3.08333,-2.20238 1.21131,-1.21131 2.20238,-3.29256 2.20238,-4.625 0,-1.33244 -0.69375,-2.42262 -1.54166,-2.42262 -0.84792,0 -1.54167,1.3875 -1.54167,3.08334 0,1.69583 -0.69375,3.08333 -1.54167,3.08333 -0.84791,0 -1.54166,0.69375 -1.54166,1.54167 0,0.84791 0.39643,1.54166 0.88095,1.54166 z m 49.99405,0 c 5.93541,0 10.79166,-0.39643 10.79166,-0.88095 0,-0.48452 -0.99107,-1.87202 -2.20238,-3.08333 -1.21131,-1.21131 -3.23475,-2.20238 -4.49653,-2.20238 -1.26178,0 -2.64601,0.86718 -3.07608,1.92708 -0.58878,1.45104 -1.19177,1.35583 -2.44097,-0.38542 -1.4747,-2.05555 -1.84337,-2.05555 -3.31807,0 -1.24921,1.74125 -1.8522,1.83646 -2.44097,0.38542 -0.43439,-1.07053 -3.4087,-1.92708 -6.69166,-1.92708 -3.28297,0 -6.25728,-0.85655 -6.69166,-1.92709 -0.59037,-1.45495 -1.21715,-1.36053 -2.55834,0.38542 -1.3412,1.74595 -1.96798,1.84037 -2.55834,0.38542 -0.43007,-1.0599 -1.41788,-1.92709 -2.19514,-1.92709 -0.77725,0 -1.41319,1.3875 -1.41319,3.08334 0,2.74074 1.02778,3.08333 9.25,3.08333 5.13889,0 9.25,0.68518 9.25,1.54167 0,0.88095 4.625,1.54166 10.79167,1.54166 z m 15.41666,0 c 0.84792,0 1.54167,-0.69375 1.54167,-1.54166 0,-0.84792 -0.69375,-1.54167 -1.54167,-1.54167 -0.84791,0 -1.54166,0.69375 -1.54166,1.54167 0,0.84791 0.69375,1.54166 1.54166,1.54166 z m -49.33333,-3.08333 c 0.84792,0 1.54167,-1.3875 1.54167,-3.08333 0,-2.39815 -1.02778,-3.08334 -4.625,-3.08334 -2.54375,0 -4.625,0.69375 -4.625,1.54167 0,0.84792 1.3875,1.54167 3.08333,1.54167 1.69583,0 3.08333,0.69375 3.08333,1.54166 0,0.84792 0.69375,1.54167 1.54167,1.54167 z m 6.16667,-12.33333 c 0.84791,0 1.54166,-0.69375 1.54166,-1.54167 0,-0.84792 -0.69375,-1.54167 -1.54166,-1.54167 -0.84792,0 -1.54167,0.69375 -1.54167,1.54167 0,0.84792 0.69375,1.54167 1.54167,1.54167 z m -9.25,141.83333 c -0.84792,0 -1.54167,-0.69375 -1.54167,-1.54167 0,-0.84791 0.69375,-1.54166 1.54167,-1.54166 0.84791,0 1.54166,0.69375 1.54166,1.54166 0,0.84792 -0.69375,1.54167 -1.54166,1.54167 z m 9.25,0 c -0.84792,0 -1.54167,-0.69375 -1.54167,-1.54167 0,-0.84791 0.69375,-1.54166 1.54167,-1.54166 0.84791,0 1.54166,0.69375 1.54166,1.54166 0,0.84792 -0.69375,1.54167 -1.54166,1.54167 z m 9.25,0 c -0.84792,0 -1.54167,-0.69375 -1.54167,-1.54167 0,-0.84791 0.69375,-1.54166 1.54167,-1.54166 0.84791,0 1.54166,0.69375 1.54166,1.54166 0,0.84792 -0.69375,1.54167 -1.54166,1.54167 z m 6.16666,0 c -0.84791,0 -1.54166,-0.69375 -1.54166,-1.54167 0,-0.84791 0.69375,-1.54166 1.54166,-1.54166 0.84792,0 1.54167,0.69375 1.54167,1.54166 0,0.84792 -0.69375,1.54167 -1.54167,1.54167 z" id="path3927" style="fill:#000000" />
    </g>
    <g transform="translate(-478.85715,20)" id="g3855">
      <path d="m 498.55952,783.50507 -15.41667,0 0,-6.16667 0,-6.16666 4.00647,0 4.00647,0 4.44714,-4.76068 4.44713,-4.76068 2.33806,2.33806 2.33806,2.33806 0,3.34575 0,3.34576 4.625,4.32039 c 2.54375,2.37622 4.625,4.73581 4.625,5.24354 l 0,0.92313 -15.41666,0 z m 84.79166,0 -29.29166,0 0,-1.54167 c 0,-0.84791 0.69375,-1.54166 1.54166,-1.54166 l 1.54167,0 0,-2.743 0,-2.743 3.08333,-2.22234 3.08334,-2.22234 0,-2.74299 0,-2.743 1.54166,0 1.54167,0 0,-3.08333 0,-3.08334 12.33333,0 12.33334,0 0,1.54167 0,1.54167 3.89473,0 3.89474,0 6.89693,6.89693 6.89693,6.89693 0,3.89473 0,3.89474 -29.29167,0 z" id="path3871" style="fill:#fefefe" />
      <path d="m 518.85813,783.44643 c -0.56528,-0.0322 -1.89497,-1.0436 -2.95486,-2.24743 -1.0599,-1.20384 -1.92709,-3.2587 -1.92709,-4.56636 l 0,-2.37757 -3.08333,0 -3.08333,0 0,-6.16667 0,-6.16666 -1.54167,0 c -0.84792,0 -1.54167,-0.69375 -1.54167,-1.54167 l 0,-1.54167 2.743,0 2.743,0 2.22234,3.08334 2.22234,3.08333 2.74299,0 2.743,0 0,2.42262 0,2.42262 2.20238,2.20238 2.20238,2.20238 2.42262,0 2.42262,0 0,1.54167 0,1.54166 12.33333,0 12.33334,0 0,0.88096 c 0,0.48452 -1.10359,1.98453 -2.45241,3.33336 l -2.45241,2.4524 -1.40176,-2.17711 -1.40176,-2.17711 -1.54166,2.3125 -1.54167,2.3125 -1.65904,-2.3125 -1.65903,-2.3125 -0.78194,1.92709 -0.78193,1.92708 -2.82639,0 -2.82639,0 -0.89931,-1.92708 -0.8993,-1.92709 -0.89931,1.92709 -0.8993,1.92708 -2.82639,0 -2.82639,0 -0.89931,-1.92708 -0.8993,-1.92709 -0.89931,1.92709 c -0.49462,1.05989 -1.3618,1.90069 -1.92708,1.86844 z m -3.34028,-21.52469 -1.54167,0 0,-3.08334 0,-3.08333 -3.08333,0 -3.08333,0 0,-1.41319 c 0,-0.77726 0.86718,-1.81789 1.92708,-2.3125 l 1.92708,-0.89931 -1.92708,-0.89931 -1.92708,-0.8993 0,-2.82639 0,-2.82639 1.92708,-0.8993 1.92708,-0.89931 -1.92708,-0.89931 -1.92708,-0.8993 0,-4.36806 0,-4.36805 -1.92709,-0.78194 -1.92708,-0.78194 2.3125,-1.65903 2.3125,-1.65904 -2.3125,-1.54166 -2.3125,-1.54167 2.3125,-1.65904 2.3125,-1.65903 -1.92708,-0.78194 -1.92709,-0.78193 0,-4.49653 0,-4.49653 -1.54166,0 -1.54167,0 0,-4.625 0,-4.625 1.54167,0 1.54166,0 0,-4.625 0,-4.625 -1.54166,0 -1.54167,0 0,-3.08333 0,-3.08334 3.08333,0 3.08334,0 0,1.4132 c 0,0.77725 -0.86719,1.7229 -1.92709,2.10144 l -1.92708,0.68824 1.08284,1.16543 1.08283,1.16542 2.75757,-2.75756 2.75756,-2.75757 -1.91332,-0.63777 -1.91331,-0.63777 0,-3.79577 0,-3.79577 4.00937,-4.00937 4.00937,-4.00937 1.24655,2.01697 1.24656,2.01697 2.63594,-2.63594 2.63594,-2.63594 -1.03819,-1.03819 -1.03819,-1.03819 -1.45785,2.26786 -1.45784,2.26785 -1.45487,-2.26305 -1.45487,-2.26305 -2.96554,3.4193 c -1.63105,1.88062 -3.40448,3.4193 -3.94096,3.4193 -0.53648,0 -0.97542,-1.07216 -0.97542,-2.38258 l 0,-2.38257 3.78409,-3.78409 3.78409,-3.78409 14.71591,0 14.71591,0 0,1.54166 0,1.54167 10.79166,0 10.79167,0 0,1.54167 0,1.54166 2.42262,0 2.42262,0 2.20238,2.20238 c 1.21131,1.21131 2.20238,3.23475 2.20238,4.49653 l 0,2.29415 1.92708,0.8993 1.92709,0.89931 -1.92709,0.89931 -1.92708,0.8993 0,2.95486 0,2.95486 1.54167,0 1.54166,0 0,2.95486 0,2.95487 -1.92708,0.8993 -1.92708,0.89931 1.92708,0.8993 1.92708,0.89931 0,2.95486 0,2.95486 -1.54166,0 -1.54167,0 0,3.08333 0,3.08334 1.54167,0 1.54166,0 0,4.625 0,4.625 -1.54166,0 -1.54167,0 0,7.70833 0,7.70833 -1.54167,0 -1.54166,0 0,2.95486 0,2.95487 -1.92709,0.78193 -1.92708,0.78194 2.17711,1.51913 2.17711,1.51913 -2.45241,2.4524 -2.45241,2.45241 -2.42261,0 -2.42262,0 0,1.41319 c 0,0.77726 0.86718,1.81789 1.92708,2.3125 l 1.92708,0.89931 -1.92708,0.89931 -1.92708,0.8993 0,2.95486 0,2.95486 -1.54167,0 -1.54167,0 0,-9.25 0,-9.25 -3.08333,0 -3.08333,0 0,-3.08333 0,-3.08333 1.54166,0 1.54167,0 0,-4.625 0,-4.625 -1.54167,0 -1.54166,0 0,-6.16667 0,-6.16667 -1.54167,0 -1.54167,0 0,-4.625 0,-4.625 -1.54166,0 -1.54167,0 0,6.0382 0,6.03819 1.92708,0.78194 1.92709,0.78194 -2.26305,1.57224 -2.26305,1.57224 3.75526,3.25692 3.75527,3.25692 -2.26305,1.57224 -2.26305,1.57224 1.92708,0.78194 c 1.0599,0.43007 1.92709,1.41788 1.92709,2.19513 l 0,1.4132 -3.08334,0 -3.08333,0 0,3.08333 0,3.08333 -1.41319,0 c -0.77726,0 -1.81789,-0.86718 -2.3125,-1.92708 l -0.89931,-1.92708 -0.89931,1.92708 c -0.49461,1.0599 -1.53524,1.92708 -2.3125,1.92708 l -1.41319,0 0,-2.95486 0,-2.95486 1.92708,-0.68824 1.92709,-0.68825 -1.08284,-1.16542 -1.08284,-1.16543 -2.38591,2.38591 -2.38591,2.38592 0,2.42261 0,2.42262 -1.4132,0 c -0.77725,0 -1.70019,-0.86099 -2.05097,-1.91331 l -0.63777,-1.91332 -2.57403,2.57403 -2.57403,2.57403 0,3.96429 0,3.96428 -1.54167,0 -1.54167,0 0,6.16667 0,6.16667 -1.54166,0 -1.54167,0 0,-6.16667 0,-6.16667 -1.54167,0 -1.54166,0 0,-4.625 0,-4.625 -1.54167,0 -1.54167,0 0,6.16667 0,6.16667 1.54167,0 1.54167,0 0,4.625 0,4.625 -1.54167,0 z m 49.33333,-18.5 c 0.84792,0 1.54167,-0.69375 1.54167,-1.54167 0,-0.84792 -0.69375,-1.54167 -1.54167,-1.54167 -0.84791,0 -1.54166,0.69375 -1.54166,1.54167 0,0.84792 0.69375,1.54167 1.54166,1.54167 z m -52.41666,-6.16667 c 0.84791,0 1.54166,-0.69375 1.54166,-1.54167 0,-0.84791 -0.69375,-1.54166 -1.54166,-1.54166 -0.84792,0 -1.54167,0.69375 -1.54167,1.54166 0,0.84792 0.69375,1.54167 1.54167,1.54167 z m 9.25,0 c 0.84791,0 1.54166,-0.69375 1.54166,-1.54167 0,-0.84791 -0.69375,-1.54166 -1.54166,-1.54166 -0.84792,0 -1.54167,0.69375 -1.54167,1.54166 0,0.84792 0.69375,1.54167 1.54167,1.54167 z m 43.16666,-3.08333 c 0.84792,0 1.54167,-0.69375 1.54167,-1.54167 0,-0.84792 -0.69375,-1.54167 -1.54167,-1.54167 -0.84791,0 -1.54166,0.69375 -1.54166,1.54167 0,0.84792 0.69375,1.54167 1.54166,1.54167 z m -46.25,-3.08334 c 0.84792,0 1.54167,-0.69375 1.54167,-1.54166 0,-0.84792 -0.69375,-1.54167 -1.54167,-1.54167 -0.84791,0 -1.54166,0.69375 -1.54166,1.54167 0,0.84791 0.69375,1.54166 1.54166,1.54166 z m 14.71591,0 c 0.4625,0 2.54375,-1.70284 4.625,-3.78409 l 3.78409,-3.78409 0,-2.38257 0,-2.38258 -1.41319,0 c -0.77726,0 -1.76507,0.86719 -2.19513,1.92708 l -0.78194,1.92709 -1.57521,-2.26786 -1.57521,-2.26785 -1.19543,1.19543 -1.19543,1.19543 2.26786,1.57521 2.26785,1.57521 -1.92708,0.78193 -1.92709,0.78194 0,2.95486 c 0,1.62518 0.37841,2.95486 0.84091,2.95486 z m 13.03409,-3.08333 c 0.84792,0 1.54167,-0.69375 1.54167,-1.54167 0,-0.84791 -0.69375,-1.54166 -1.54167,-1.54166 -0.84791,0 -1.54166,0.69375 -1.54166,1.54166 0,0.84792 0.69375,1.54167 1.54166,1.54167 z m 18.5,0 c 0.84792,0 1.54167,-0.69375 1.54167,-1.54167 0,-0.84791 -0.69375,-1.54166 -1.54167,-1.54166 -0.84791,0 -1.54166,0.69375 -1.54166,1.54166 0,0.84792 0.69375,1.54167 1.54166,1.54167 z m -49.33333,-3.08333 c 0.84792,0 1.54167,-0.69375 1.54167,-1.54167 0,-0.84792 -0.69375,-1.54167 -1.54167,-1.54167 -0.84792,0 -1.54167,0.69375 -1.54167,1.54167 0,0.84792 0.69375,1.54167 1.54167,1.54167 z m 20.92262,-9.25 c 0.48452,0 1.87202,-0.99107 3.08333,-2.20238 l 2.20238,-2.20239 0,-2.42261 0,-2.42262 -1.54166,0 -1.54167,0 0,3.08333 0,3.08333 -1.54167,0 c -0.84791,0 -1.54166,0.69375 -1.54166,1.54167 0,0.84792 0.39643,1.54167 0.88095,1.54167 z m 25.7128,-3.14198 c 0.63593,0.0322 1.15625,-0.63511 1.15625,-1.48302 l 0,-1.54167 3.08333,0 3.08333,0 0,1.54167 c 0,0.84791 0.69375,1.54166 1.54167,1.54166 l 1.54167,0 0,-3.08333 0,-3.08333 -7.70834,0 c -4.23958,0 -7.70833,0.37615 -7.70833,0.8359 0,0.45974 0.86719,1.82086 1.92708,3.02469 1.0599,1.20384 2.4474,2.21518 3.08334,2.24743 z m -45.22223,-3.02469 2.95487,0 0.78193,-1.92708 0.78194,-1.92709 1.7764,2.3125 1.77641,2.3125 0.78193,-1.92708 0.78194,-1.92708 2.82639,0 2.82639,0 0.68824,1.92708 0.68825,1.92708 1.16542,-1.08283 1.16543,-1.08284 -2.38591,-2.38591 -2.38592,-2.38592 -8.58928,0 -8.58929,0 0,3.08334 0,3.08333 2.95486,0 z m -10.66319,-3.08333 1.54167,0 0,-3.08334 0,-3.08333 3.08333,0 3.08333,0 0,-1.54167 0,-1.54166 4.625,0 4.625,0 0,1.54166 0,1.54167 7.70834,0 7.70833,0 0,-1.54167 0,-1.54166 -3.08333,0 -3.08334,0 0,-1.54167 0,-1.54167 -6.03819,0 -6.0382,0 -0.8993,-1.92708 -0.89931,-1.92708 -0.8993,1.92708 -0.89931,1.92708 -4.49653,0 -4.49652,0 0,3.08334 0,3.08333 -1.54167,0 -1.54167,0 0,3.08333 0,3.08334 1.54167,0 z m 53.95833,-3.08334 6.16667,0 0,-1.54166 0,-1.54167 4.625,0 4.625,0 0,-1.54167 0,-1.54166 -10.79167,0 -10.79166,0 0,3.08333 0,3.08333 6.16666,0 z m 7.70834,-12.33333 c 0.84791,0 1.54166,-0.69375 1.54166,-1.54167 0,-0.84791 -0.69375,-1.54166 -1.54166,-1.54166 -0.84792,0 -1.54167,0.69375 -1.54167,1.54166 0,0.84792 0.69375,1.54167 1.54167,1.54167 z m -46.25,-6.16667 c 0.84791,0 1.54166,-0.69375 1.54166,-1.54166 0,-0.84792 -0.69375,-1.54167 -1.54166,-1.54167 -0.84792,0 -1.54167,0.69375 -1.54167,1.54167 0,0.84791 0.69375,1.54166 1.54167,1.54166 z m 18.5,0 c 0.84791,0 1.54166,-0.69375 1.54166,-1.54166 0,-0.84792 -0.69375,-1.54167 -1.54166,-1.54167 -0.84792,0 -1.54167,0.69375 -1.54167,1.54167 0,0.84791 0.69375,1.54166 1.54167,1.54166 z m 15.41666,0 c 0.84792,0 1.54167,-0.69375 1.54167,-1.54166 0,-0.84792 -0.69375,-1.54167 -1.54167,-1.54167 -0.84791,0 -1.54166,0.69375 -1.54166,1.54167 0,0.84791 0.69375,1.54166 1.54166,1.54166 z m 9.25,0 c 0.84792,0 1.54167,-0.69375 1.54167,-1.54166 0,-0.84792 -0.69375,-1.54167 -1.54167,-1.54167 -0.84791,0 -1.54166,0.69375 -1.54166,1.54167 0,0.84791 0.69375,1.54166 1.54166,1.54166 z m 6.16667,0 c 0.84792,0 1.54167,-0.69375 1.54167,-1.54166 0,-0.84792 -0.69375,-1.54167 -1.54167,-1.54167 -0.84792,0 -1.54167,0.69375 -1.54167,1.54167 0,0.84791 0.69375,1.54166 1.54167,1.54166 z m -21.58333,-3.08333 c 0.84791,0 1.54166,-0.69375 1.54166,-1.54167 0,-0.84791 -0.69375,-1.54166 -1.54166,-1.54166 -0.84792,0 -1.54167,0.69375 -1.54167,1.54166 0,0.84792 0.69375,1.54167 1.54167,1.54167 z m -33.91667,-3.08333 c 0.84792,0 1.54167,-0.69375 1.54167,-1.54167 0,-0.84792 -0.69375,-1.54167 -1.54167,-1.54167 -0.84792,0 -1.54167,0.69375 -1.54167,1.54167 0,0.84792 0.69375,1.54167 1.54167,1.54167 z m 6.16667,0 c 0.84791,0 1.54166,-0.69375 1.54166,-1.54167 0,-0.84792 -0.69375,-1.54167 -1.54166,-1.54167 -0.84792,0 -1.54167,0.69375 -1.54167,1.54167 0,0.84792 0.69375,1.54167 1.54167,1.54167 z m 49.33333,0 1.54167,0 0,-2.42262 0,-2.42262 -2.38592,-2.38591 -2.38591,-2.38592 -1.08284,1.16543 -1.08283,1.16543 1.92708,0.68824 1.92708,0.68824 0,2.95487 0,2.95486 1.54167,0 z m -43.16667,-3.08334 c 0.84792,0 1.54167,-0.69375 1.54167,-1.54166 0,-0.84792 -0.69375,-1.54167 -1.54167,-1.54167 -0.84791,0 -1.54166,0.69375 -1.54166,1.54167 0,0.84791 0.69375,1.54166 1.54166,1.54166 z m 30.83334,0 c 0.84791,0 1.54166,-0.69375 1.54166,-1.54166 0,-0.84792 -0.69375,-1.54167 -1.54166,-1.54167 -0.84792,0 -1.54167,0.69375 -1.54167,1.54167 0,0.84791 0.69375,1.54166 1.54167,1.54166 z m -18.5,-3.08333 c 0.84791,0 1.54166,-0.69375 1.54166,-1.54167 0,-0.84791 -0.69375,-1.54166 -1.54166,-1.54166 -0.84792,0 -1.54167,0.69375 -1.54167,1.54166 0,0.84792 0.69375,1.54167 1.54167,1.54167 z m 12.33333,0 c 0.84792,0 1.54167,-0.69375 1.54167,-1.54167 0,-0.84791 -0.69375,-1.54166 -1.54167,-1.54166 -0.84792,0 -1.54167,0.69375 -1.54167,1.54166 0,0.84792 0.69375,1.54167 1.54167,1.54167 z m -52.03125,58.52469 c -0.63594,-0.0322 -2.02344,-1.04359 -3.08333,-2.24743 -1.0599,-1.20383 -1.92709,-3.2587 -1.92709,-4.56636 l 0,-2.37757 -1.54166,0 -1.54167,0 0,-6.03819 0,-6.0382 1.92708,-0.68824 1.92709,-0.68824 -1.36731,-1.36731 -1.36732,-1.36732 -0.68824,1.92709 c -0.37853,1.05989 -1.32418,1.92708 -2.10144,1.92708 l -1.41319,0 0,-2.42262 0,-2.42262 2.20238,-2.20238 c 1.21131,-1.21131 2.59881,-2.20238 3.08333,-2.20238 0.48452,0 0.88095,1.3875 0.88095,3.08333 l 0,3.08334 1.54167,0 1.54167,0 0,7.70833 0,7.70833 1.54166,0 1.54167,0 0,4.625 0,4.625 -1.15625,-0.0586 z m 79.78125,0.0586 -1.54167,0 0,-7.70833 0,-7.70833 2.42262,0 2.42262,0 2.20238,2.20238 c 1.21131,1.21131 2.20238,2.59881 2.20238,3.08333 0,0.48452 -1.3875,0.88095 -3.08333,0.88095 l -3.08333,0 0,4.625 0,4.625 -1.54167,0 z" id="path3869" style="fill:#ecc0a5" />
      <path d="m 541.72618,774.25507 -9.25,0 0,-1.54167 0,-1.54166 -3.08333,0 -3.08333,0 0,-3.08334 0,-3.08333 -1.54167,0 -1.54167,0 0,-7.70833 0,-7.70834 13.875,0 13.875,0 0,1.54167 0,1.54167 3.08334,0 3.08333,0 0,-1.54167 c 0,-0.84792 0.69375,-1.54167 1.54167,-1.54167 l 1.54166,0 0,7.70834 0,7.70833 -1.54166,0 -1.54167,0 0,3.08333 0,3.08334 -1.54167,0 -1.54166,0 0,-4.625 0,-4.625 -1.54167,0 -1.54167,0 0,6.16666 0,6.16667 -9.25,0 z m -10.79166,-6.16667 1.54166,0 0,-3.08333 0,-3.08333 -1.54166,0 -1.54167,0 0,3.08333 0,3.08333 1.54167,0 z m 15.41666,-3.08333 c 0.84792,0 1.54167,-0.69375 1.54167,-1.54167 0,-0.84791 -0.69375,-1.54166 -1.54167,-1.54166 -0.84791,0 -1.54166,0.69375 -1.54166,1.54166 0,0.84792 0.69375,1.54167 1.54166,1.54167 z m -9.25,-3.08333 c 0.84792,0 1.54167,-0.69375 1.54167,-1.54167 0,-0.84792 -0.69375,-1.54167 -1.54167,-1.54167 -0.84791,0 -1.54166,0.69375 -1.54166,1.54167 0,0.84792 0.69375,1.54167 1.54166,1.54167 z m -9.25,-3.08334 c 0.84792,0 1.54167,-0.69375 1.54167,-1.54166 0,-0.84792 -0.69375,-1.54167 -1.54167,-1.54167 -0.84791,0 -1.54166,0.69375 -1.54166,1.54167 0,0.84791 0.69375,1.54166 1.54166,1.54166 z m 15.41667,0 1.54167,0 0,-3.08333 0,-3.08333 -1.54167,0 -1.54167,0 0,3.08333 0,3.08333 1.54167,0 z m 0,-12.33333 -16.95833,0 0,-0.88095 c 0,-0.48453 0.99107,-1.87203 2.20238,-3.08334 l 2.20238,-2.20238 12.55357,0 12.55357,0 2.20238,2.20238 c 1.21131,1.21131 2.20238,2.59881 2.20238,3.08334 l 0,0.88095 -16.95833,0 z" id="path3865" style="fill:#c88e69" />
      <path d="m 561.76785,712.5884 c -0.84792,0 -1.54167,-0.69375 -1.54167,-1.54166 0,-0.84792 0.69375,-1.54167 1.54167,-1.54167 0.84792,0 1.54167,0.69375 1.54167,1.54167 0,0.84791 -0.69375,1.54166 -1.54167,1.54166 z m -37,-3.08333 c -0.84792,0 -1.54167,-0.69375 -1.54167,-1.54167 0,-0.84791 0.69375,-1.54166 1.54167,-1.54166 0.84792,0 1.54167,0.69375 1.54167,1.54166 0,0.84792 -0.69375,1.54167 -1.54167,1.54167 z" id="path3863" style="fill:#4899cd" />
      <path d="m 583.35118,691.00507 -1.54166,0 0,-3.08333 0,-3.08334 1.54166,0 1.54167,0 0,3.08334 0,3.08333 -1.54167,0 z m 0,-9.25 -1.54166,0 0,-6.16667 0,-6.16666 1.54166,0 1.54167,0 0,6.16666 0,6.16667 -1.54167,0 z m -83.91071,-3.08333 c -0.48452,0 -0.88095,-1.3875 -0.88095,-3.08334 l 0,-3.08333 3.08333,0 c 1.69583,0 3.08333,0.39643 3.08333,0.88095 0,0.48453 -0.99107,1.87203 -2.20238,3.08334 -1.21131,1.21131 -2.59881,2.20238 -3.08333,2.20238 z m 4.12946,-9.30864 c -0.63593,-0.0323 -2.16784,-1.19818 -3.40422,-2.59095 l -2.24798,-2.53232 1.86256,-0.62085 1.86256,-0.62085 0,-2.95487 0,-2.95486 1.54167,0 1.54166,0 0,2.95486 0,2.95487 -1.92708,0.8993 -1.92708,0.89931 1.92708,0.8993 c 1.0599,0.49462 1.92708,1.53525 1.92708,2.3125 0,0.77726 -0.52031,1.38681 -1.15625,1.35456 z m 70.91667,-3.08334 c -0.63594,-0.0322 -2.09342,-1.11851 -3.23886,-2.41392 l -2.0826,-2.35528 0.85294,-0.85294 0.85294,-0.85295 2.38592,2.38592 c 1.31225,1.31225 2.38591,2.78234 2.38591,3.26686 0,0.48452 -0.52031,0.85456 -1.15625,0.82231 z m 5.78125,0.0586 c -0.84792,0 -1.54167,-0.69375 -1.54167,-1.54166 0,-0.84792 0.69375,-1.54167 1.54167,-1.54167 0.84792,0 1.54167,0.69375 1.54167,1.54167 0,0.84791 -0.69375,1.54166 -1.54167,1.54166 z m -71.57738,-9.25 c -0.48452,0 -0.88095,-0.69375 -0.88095,-1.54166 0,-0.84792 0.69375,-1.54167 1.54166,-1.54167 l 1.54167,0 0,-3.08333 0,-3.08334 1.54167,0 1.54166,0 0,2.42262 0,2.42262 -2.20238,2.20238 c -1.21131,1.21131 -2.59881,2.20238 -3.08333,2.20238 z m 49.99405,0 -10.79167,0 0,-1.54166 0,-1.54167 -9.25,0 -9.25,0 0,-3.08333 0,-3.08334 1.41319,0 c 0.77726,0 1.76507,0.86719 2.19514,1.92709 l 0.78193,1.92708 1.77641,-2.3125 1.7764,-2.3125 0.78194,1.92708 0.78193,1.92709 5.90973,0 5.90972,0 0.78194,1.92708 0.78193,1.92708 1.65904,-2.3125 1.65903,-2.3125 1.65904,2.3125 1.65903,2.3125 0.78194,-1.92708 0.78194,-1.92708 2.29414,0 c 1.26178,0 3.28522,0.99107 4.49653,2.20238 1.21131,1.21131 2.20238,2.59881 2.20238,3.08333 l 0,0.88095 -10.79166,0 z m 15.41666,0 c -0.84791,0 -1.54166,-0.69375 -1.54166,-1.54166 0,-0.84792 0.69375,-1.54167 1.54166,-1.54167 0.84792,0 1.54167,0.69375 1.54167,1.54167 0,0.84791 -0.69375,1.54166 -1.54167,1.54166 z m -49.33333,-3.08333 c -0.84792,0 -1.54167,-0.69375 -1.54167,-1.54167 l 0,-1.54166 -3.08333,0 -3.08333,0 0,-1.54167 0,-1.54167 4.625,0 4.625,0 0,3.08334 0,3.08333 -1.54167,0 z m 6.16667,-12.33333 c -0.84792,0 -1.54167,-0.69375 -1.54167,-1.54167 0,-0.84792 0.69375,-1.54167 1.54167,-1.54167 0.84791,0 1.54166,0.69375 1.54166,1.54167 0,0.84792 -0.69375,1.54167 -1.54166,1.54167 z m -6.16667,-3.08334 c -0.84792,0 -1.54167,-0.69375 -1.54167,-1.54166 0,-0.84792 0.69375,-1.54167 1.54167,-1.54167 0.84792,0 1.54167,0.69375 1.54167,1.54167 0,0.84791 -0.69375,1.54166 -1.54167,1.54166 z" id="path3861" style="fill:#6d482b" />
      <path d="m 571.01785,712.5884 c -0.84792,0 -1.54167,-0.69375 -1.54167,-1.54166 l 0,-1.54167 -6.16666,0 -6.16667,0 0,-1.54167 0,-1.54166 7.70833,0 7.70834,0 0,3.08333 0,3.08333 -1.54167,0 z m -53.95833,-3.08333 -3.08334,0 0,-3.08333 0,-3.08334 9.25,0 9.25,0 0,1.54167 0,1.54167 -6.16666,0 -6.16667,0 0,1.54166 0,1.54167 -3.08333,0 z" id="path3859" style="fill:#6a3718" />
    </g>
  </g>
</svg>
