<?xml version="1.0" encoding="UTF-8" standalone="no"?><svg xmlns="http://www.w3.org/2000/svg" version="1.0" width="68.5" height="64">
<defs><style type="text/css">
svg{background:lightgrey;} @media print { #avatar { opacity: 0} }
@media screen { #qrcode { opacity: 0} }
@media screen and (max-height:236px) { #avatar{opacity:1} #qrcode{opacity:0 !important}}
@media screen and (min-height:256px) { #avatar{opacity:0} #qrcode{opacity:1}}
@media screen and (min-height: 65px) { #avatar-background{opacity:0}}
@media screen and (max-height: 31px) { #hideatzooms{opacity:0}}
</style></defs>
  <g id="avatar">
    <path d="m 20.5,56 0,-48 48,0 0,48 z" id="avatar-background" style="fill:#8398b4" />
    <path d="m 30.5,49 -2,-2 0,-6 -2,-2 -1,0 -1,-1 -1,-2 -1,-4 0,-2 2,-2 2,-4 2,-8 20,0 2,3 1,2 0,5 2,7 1,2 0,1 -1,1 -1,2 -2,1 -1,3 -2,4 -2,2 z" id="avatar-face-skin" style="fill:#ecc0a5" />
    <path d="m 33.5,50 0,-5 1,0 0,-3 11,0 0,8 -1,2 -2,1 -6,0 0,-1 -2,0 z" id="avatar-face-goatee" style="fill:#c88e69" />
    <path d="m 27.5,15 0.5,7 -2.5,0 0,-5.5 1,-1.5 3,-3 4,-4 3,0 0,4 2,0 1,1 8,0 3,1 2,3 1,1.5 0,7.5 -1,0 0,-8 -3,0 -1,-1 0,-2 z" id="avatar-face-caatinga" style="fill:#6d482b" />
    <path d="m 27.5,47 0,-3 -1,0 0,-1 1,0 0,-1 0,-1 -0.5,0 -0.5,0 0,-2.5 0,-2.5 -1,0 0,-5 -1,0 0,-2 -1,0 0,1 -1,0 0,2 1,0 0,-1 1,0 0,1 -1,0 0,4 1,0 0,2 1,0 0,1 -1,0 0,-1 -1,0 0,-1 -1,0 0,-4 -1,0 0,-4 1,0 0,-1 2,0 0,-5 -1,0 0,-6 1,0 0,-4 1,0 0,-1 1,0 0,-1 2,0 0,-1 2,0 0,-1 2,0 0,-1 1,0 0,1 1,0 0,-1 8,0 0,1 4,0 0,1 3,0 0,1 1,0 0,1 1,0 0,1 1,0 0,2 1,0 0,2 1,0 0,2 1,0 0,6 -1,0 0,3 -1,0 0,5 1,0 0,2 -1,0 0,-1 -2,0 0,5 1,0 0,-3 2,0 0,1 -1,0 0,2 -1,0 0,2 -1,0 0,-1 -1,0 0,4 -1,0 0,3 -1,0 0,1 -1,0 0,2 -1,0 0,2 -1,0 0,1 -2,0 0,1 -8,0 0,-1 -2,0 0,-1 -1,0 0,-2 -2,0 0,-1 -1,0 0,-1 -1,0 0,-1 z m 15,6 0,-4 1,0 0,3 1,0 0,-2 1,0 0,-2 1,0 0,-2 1,0 0,-1 -1,0 0,-1 2,0 0,-1 1,0 0,-1 -1,0 0,-1 1,0 0,-2 1,0 0,-5 1,0 0,-3 -1,0 0,-2 1,0 0,-2 -1,0 0,-1 1,0 0,-2 -1,0 0,-2 1,0 0,-1 -1,0 0,-2 -1,0 0,-1 1,0 0,-1 -1,0 0,-1 -1,0 0,1 1,0 0,1 -2,0 0,-1 -7,0 0,-1 -10,0 0,1 -1,0 0,1 -1,0 0,2 1,0 0,-1 1,0 0,-1 1,0 0,1 1,0 0,-1 1,0 0,1 -1,0 0,1 -1,0 0,-1 -1,0 0,1 -1,0 0,1 -1,0 0,3 1,0 0,1 -1,0 0,1 -1,0 0,-1 1,0 0,-1 -2,0 0,2 1,0 0,1.5 0,1.5 -1,0 0,3 1,0 0,3 1,0 0,1 -1,0 0,1 1,0 0,1 -1,0 0,1 1,0 0,3 1,0 0,1 -1,0 0,2 1,0 0,1 -1,0 0,1 2,0 0,2 1,0 0,-3 -1,0 0,-4 1,0 0,3 1,0 0,2 0,2 1,0 0,1 1,0 0,2 2,0 0,1 z m -7,-2 0,-2 1,0 0,2 z m 6,-1 -1,0 0,-1 1,0 z m -3,-1 -1,0 0,-1 1,0 z m -3,-1 -1,0 0,-1 1,0 z m 4,0 0,-2 1,0 0,2 z m 3,-2 0,-1 -8,0 0,-0.5 0,-0.5 11,0 0,1 -1,0 0,1 -2,0 z m -5,-4 0,-2 1,0 0,-1 1,0 0,1 -1,0 0,2 -1,0 z m 3,0 -1,0 0,-1 1,0 z m 2,0 -1,0 0,-1 0,-1 2,0 0,-1 -1,0 0,-1 1,0 0,-1 -1,0 0,-1 -1,0 0,-1 1,0 0,-1 -1,0 0,-4 1,0 0,3 1,0 0,4 1,0 0,3 -1,0 0,1 0,1 z m -4,-4 -1,0 0,1 -1,0 0,-2 1,0 0,-1 -1,0 0,-1 1,0 0,1 1,0 0,-1 1,0 0,2 -1,0 z m 3,0 -1,0 0,-1 1,0 z m -3,-4 -1,0 0,-1 1,0 0,-2 1,0 0,2 -1,0 z m -1,-2 -1,0 0,-1 1,0 z m -10,-1 0,-2 1,0 0,-2 3,0 0,-1 1,0 0,1 4,0 0,1 2,0 0,1 -5,0 0,-1 -3,0 0,1 -2,0 0,2 z m 16,-1 0,-2 7,0 0,1 -3,0 0,1 z m 5,-8 0,-2 -1,0 0,-1 1,0 0,1 1,0 0,2 z m 5,4 0,-2 -1,0 0,2 z m 0,-3 0,-4 -1,0 0,4 z m -27,-1 0,-1 1,0 0,-1 -2,0 0,2 z m 0,-3 1,0 0,-1 -1,0 0,-1 1,0 0,-2 -1,0 0,2 -1,0 0,1 1,0 z m 25,-1 1,0 0,-1 -1,0 z m -22,-3 0,-1 1,0 0,-2 -1,0 0,2 -1,0 0,1 z m 19,0 0,-1 -1,0 0,-1 -2,0 0,1 -1,0 0,-1 -1,0 0,1 -1,0 0,-1 -4,0 0,-1 -1,0 0,1 -1,0 0,-1 -1,0 0,2 6,0 0,1 z m 1,0 1,0 0,-1 -1,0 z m -15,-1 0,-2 -3,0 0,1 2,0 0,1 z m 1,-4 1,0 0,-1 -1,0 z" id="avatar-face-rimjob" style="fill:#000" />
    <path d="m 48.5,33 0,-1 -4,0 0,-1 5,0 0,2 z m -18,-1 0,-2 6,0 0,1 -4,0 0,1 z" id="avatar-face-eye-shade" style="fill:#6a3718" />
    <path d="m 46.5,33 0,-1 -1,0 0,1 z m -13,-1 1,0 0,-1 -1,0 z" id="avatar-face-eyes" style="fill:#4899cd" />
  <g id="hideatzooms">
    <path d="m 30.5,56 0,-1 -2,-2 -1,-3 0,-2 2,0 0,1 1,0 0,1 2,0 0,2 1,0 0,1 2,0 0,1 8,0 0,2 z" id="avatar-details-neck" style="fill:#ecc0a5" />
    <path d="m 42.5,19 0,1 1,0 0,-1 z m -4,0 0,1 1,0 0,-1 z m -4,1 0,1 1,0 0,-1 z m 10,0 0,1 1,0 0,-1 z m -14,1 0,1 1,0 0,-1 z m 2,0 0,1 1,0 0,-1 z m 9,1 0,1 1,0 0,-1 z m -9,1 0,1 1,0 0,-1 z m 14,0 0,1 1,0 0,-1 z m 2,0 0,1 1,0 0,-1 z m -10,0 0,1 1,0 0,-1 z m 5,0 0,1 1,0 0,-1 z m 4,2 0,1 1,0 0,-1 z m -17,11 0,1 1,0 0,-1 z m 16,1 0,1 1,0 0,-1 z m -15,1 0,1 1,0 0,-1 z m 15,1 0,1 1,0 0,-1 z m -14,1 0,1 1,0 0,-1 z m -3,0 0,1 1,0 0,-1 z m 6,1 0,1 -1,0 0,1 1,0 0,-1 1,0 0,-1 z m 11,1 0,1 1,0 0,-1 z m -1,0 -1,0 0,1 1,0 z m -18,5 -1,0 0,1 -1,0 0,1 -1,0 0,1 -1,0 0,1 -3,0 0,1 3,0 0,-1 1,0 0,-1 1,0 0,-1 1,0 0,1 1,0 0,3 1,0 0,1 1,0 0,1 1,0 0,1 1,0 0,-1 -1,0 0,-2 -2,0 0,-4 -1,0 0,-1 1,0 0,-1 z m 21,0 0,1 7,0 0,1 3,0 0,1 1,0 0,1 1,0 0,-1 -1,0 0,-1 -1,0 0,-1 -3,0 0,-1 z m 12,4 0,1 1,0 0,1 1,0 0,3 1,0 0,-3 -1,0 0,-1 -1,0 0,-1 z m -17,2 0,2 1,0 0,-2 z m 0,2 0,0 0,0 z m 0,0 -1,0 0,1 1,0 z m -5,0 0,1 1,0 0,-1 z m -6,0 0,1 1,0 0,-1 z m 4,0 -1,0 0,1 1,0 z m 4,0 0,1 1,0 0,-1 z" id="avatar-details-spots" style="fill:#000" />
    <path d="m 24.5,50 0,1 -1,0 0,1 -3,0 0,4 10,0 0,-1 -1,0 0,-1 -1,0 0,-1 -1,0 0,-3 -1,0 0,-1 -1,0 0,1 z m 23,-2 0,2 -1,0 0,2 -1,0 0,1 -1,0 0,2 -1,0 0,1 19,0 0,-3 -1,0 0,-1 -1,0 0,-1 -1,0 0,-1 -1,0 0,-1 -3,0 0,-1 z" id="avatar-details-shoulder" style="fill:#fff" />
  </g></g>
  <path d="m 7.7924998,46.504676 9.0243242,0 0,9.024324 -9.0243242,0 z m 7.7351352,1.289189 -6.445946,0 0,6.445946 6.445946,0 z m -5.156757,1.289189 3.867568,0 0,3.867568 -3.867568,0 z m 7.735135,0 1.28919,0 0,2.578378 1.289189,0 0,-1.289189 1.289189,0 0,-1.289189 -1.289189,0 0,-9.024324 1.289189,0 0,-1.28919 -1.289189,0 0,-1.289189 1.289189,0 0,-2.578378 -1.289189,0 0,1.289189 -1.289189,0 0,-1.289189 1.289189,0 0,-1.289189 -1.289189,0 0,-1.28919 -3.867568,0 0,-1.289189 2.578378,0 0,-1.289189 -3.867567,0 0,-1.289189 3.867567,0 0,-1.289189 1.28919,0 0,1.289189 -1.28919,0 0,1.289189 1.28919,0 0,2.578378 1.289189,0 0,-3.867567 1.289189,0 0,-1.289189 -1.289189,0 0,-1.28919 1.289189,0 0,-1.289189 -1.289189,0 0,-2.578378 1.289189,0 0,1.289189 1.289189,0 0,-7.735135 -1.289189,0 0,1.289189 -1.289189,0 0,2.578378 -5.156757,0 0,-1.289189 3.867568,0 0,-1.289189 -1.28919,0 0,-2.578378 1.28919,0 0,-1.28919 -1.28919,0 0,-1.289189 1.28919,0 0,-1.289189 -1.28919,0 0,-1.2891892 3.867568,0 0,1.2891892 -1.289189,0 0,1.933784 0,1.933784 -1.289189,0 0,2.578378 1.289189,0 0,-1.289189 1.289189,0 0,-3.867568 1.289189,0 0,-3.8675674 3.867568,0 0,1.2891892 -1.289189,0 0,1.2891892 3.867567,0 0,-1.2891892 0,-1.2891892 0.644595,0 0.644594,0 0,1.2891892 2.578379,0 0,-1.2891892 1.289189,0 0,1.2891892 1.289189,0 0,-1.2891892 1.289189,0 0,1.2891892 2.578379,0 0,-1.2891892 0.644594,0 0.644595,0 0,1.2891892 3.867568,0 0,9.0243242 1.289189,0 0,2.578379 1.289189,0 0,-2.578379 1.289189,0 0,3.867568 -1.289189,0 0,2.578378 1.289189,0 0,-1.289189 1.289189,0 0,-1.289189 1.28919,0 0,-2.578379 -1.28919,0 0,-1.289189 1.28919,0 0,1.289189 1.289189,0 0,-1.289189 1.289189,0 0,1.289189 -1.289189,0 0,2.578379 -1.289189,0 0,1.289189 1.289189,0 0,1.289189 1.289189,0 0,1.289189 1.289189,0 0,3.867568 -1.289189,0 0,1.289189 1.289189,0 0,3.867568 -1.289189,0 0,1.289189 1.289189,0 0,3.867568 -1.289189,0 0,1.289189 1.289189,0 0,1.289189 0,1.289189 -1.289189,0 0,-1.289189 -1.289189,0 0,-1.289189 -1.289189,0 0,1.289189 -1.28919,0 0,1.289189 2.578379,0 0,2.578379 2.578378,0 0,2.578378 -1.289189,0 0,1.289189 1.289189,0 0,5.156757 -3.867567,0 0,-1.289189 2.578378,0 0,-2.578379 -1.289189,0 0,-1.289189 -2.578379,0 0,1.289189 1.28919,0 0,1.28919 -1.28919,0 0,1.289189 -1.289189,0 0,-1.289189 -1.289189,0 0,2.578378 -2.578378,0 0,-1.289189 -5.156757,0 0,1.289189 -3.867568,0 0,-1.289189 -1.289189,0 0,-1.289189 -2.578378,0 0,1.289189 -1.28919,0 0,1.289189 -1.289189,0 0,-1.289189 1.289189,0 0,-1.289189 1.28919,0 0,-1.28919 -1.28919,0 0,-1.289189 -1.289189,0 -1.289189,0 0,-1.289189 -1.289189,0 0,1.289189 -1.289189,0 0,-1.289189 1.289189,0 0,-5.156757 -1.289189,0 0,-1.289189 1.289189,0 0,-1.289189 -3.867568,0 0,-1.289189 -1.289189,0 0,6.445946 2.578378,0 0,1.289189 -2.578378,0 0,1.289189 1.289189,0 0,1.289189 -1.289189,0 0,2.578379 -1.289189,0 0,1.289189 -1.289189,0 0,1.289189 -1.28919,0 z m 28.362163,3.867568 1.289189,0 0,-1.28919 1.289189,0 0,1.28919 1.289189,0 0,-1.28919 -1.289189,0 0,-1.289189 -1.289189,0 0,1.289189 -2.578378,0 0,-1.289189 -2.578379,0 0,2.578379 1.289189,0 0,-1.28919 1.28919,0 0,2.578379 1.289189,0 z m -5.156757,-2.578379 -1.289189,0 0,-2.578378 1.289189,0 0,1.289189 2.578378,0 0,-2.578378 -2.578378,0 0,-1.28919 -1.289189,0 0,2.578379 -1.289189,0 0,-2.578379 -5.156757,0 0,-1.289189 9.024324,0 0,-1.289189 -1.289189,0 0,-2.578378 1.289189,0 0,1.289189 3.867568,0 0,1.289189 -1.289189,0 0,1.289189 3.867567,0 0,-1.289189 1.289189,0 0,-2.578378 -1.289189,0 0,-1.28919 -1.289189,0 0,-1.289189 1.289189,0 0,-1.289189 1.289189,0 0,1.289189 0,1.289189 3.867568,0 0,-1.289189 -2.578378,0 0,-2.578378 -1.28919,0 -1.289189,0 0,-1.289189 0,-1.28919 -2.578378,0 0,-1.289189 1.289189,0 0,-1.289189 -1.289189,0 0,1.289189 -1.289189,0 0,-1.289189 -1.28919,0 0,1.289189 1.28919,0 0,1.289189 -2.578379,0 0,1.28919 1.289189,0 0,1.289189 -1.289189,0 0,1.289189 3.867568,0 0,1.289189 -1.289189,0 0,1.289189 -1.28919,0 0,-1.289189 -2.578378,0 0,-6.445946 1.289189,0 0,-2.578378 2.578379,0 0,-2.578379 2.578378,0 0,-1.289189 -2.578378,0 0,1.289189 -2.578379,0 0,-1.289189 1.289189,0 0,-2.578378 1.28919,0 0,1.289189 1.289189,0 0,-1.289189 -1.289189,0 0,-3.867568 -5.156757,0 0,-1.289189 1.289189,0 0,-1.289189 -1.289189,0 0,1.289189 -1.289189,0 0,-1.289189 -1.28919,0 0,1.289189 -1.289189,0 0,-1.289189 -1.289189,0 0,1.289189 -1.289189,0 0,-1.289189 -1.289189,0 0,1.289189 -1.28919,0 0,-1.289189 -1.289189,0 0,1.289189 1.289189,0 0,1.289189 -1.289189,0 0,1.289189 -1.289189,0 0,1.28919 1.289189,0 0,1.289189 -1.289189,0 0,2.578378 -1.289189,0 0,1.289189 1.289189,0 0,1.28919 -1.289189,0 0,1.289189 -1.289189,0 0,1.289189 1.289189,0 0,-1.289189 1.289189,0 0,-1.289189 1.289189,0 1.289189,0 0,-1.28919 1.28919,0 0,1.28919 1.933783,0 1.933784,0 0,1.289189 2.578379,0 0,0.644594 0,0.644595 -2.578379,0 0,1.289189 -1.289189,0 0,1.289189 -5.156757,0 0,-1.289189 1.289189,0 0,-1.289189 2.578379,0 0,-1.289189 -2.578379,0 0,1.289189 -2.578378,0 0,1.289189 -1.289189,0 0,3.867568 1.289189,0 0,6.445946 1.289189,0 0,1.289189 -1.289189,0 0,2.578378 1.289189,0 0,1.28919 1.289189,0 0,-1.28919 -1.289189,0 0,-2.578378 1.289189,0 0,1.289189 1.28919,0 0,5.156757 2.578378,0 0,-1.289189 -1.289189,0 0,-1.289189 2.578378,0 0,1.289189 2.578379,0 0,1.289189 -2.578379,0 0,2.578378 5.156757,0 z m -6.445946,-9.024324 1.289189,0 0,1.289189 -1.289189,0 z m 2.578378,-2.578379 -1.289189,0 0,-3.867567 2.578379,0 0,2.578378 -1.28919,0 0,1.289189 1.28919,0 0,2.578379 1.289189,0 0,1.289189 -2.578379,0 z m 10.313514,1.28919 -2.578378,0 0,-1.28919 2.578378,0 0,1.28919 1.289189,0 0,2.578378 -1.289189,0 z m -7.735135,-2.578379 1.289189,0 0,1.289189 -1.289189,0 z m 7.735135,-2.578378 -1.289189,0 0,-1.289189 1.289189,0 0,1.289189 1.289189,0 0,1.289189 -1.289189,0 z m -10.313514,-2.578379 -1.289189,0 0,-1.289189 2.578379,0 0,2.578379 -1.28919,0 z m -9.024324,-7.735135 1.289189,0 0,1.289189 -1.289189,0 z m 20.627027,20.627027 -3.867567,0 0,3.867568 3.867567,0 z m -2.578378,1.28919 1.289189,0 0,1.289189 -1.289189,0 z m 7.735135,1.289189 -3.867568,0 0,1.289189 3.867568,0 z m -2.578378,-2.578379 -1.28919,0 0,1.28919 1.28919,0 z m -25.783784,-10.313513 0,-2.578379 -1.28919,0 -1.289189,0 0,3.867568 1.289189,0 0,1.289189 1.28919,0 0,-2.578378 z m 28.362162,-2.578379 -3.867568,0 0,1.28919 3.867568,0 z m -29.651352,-2.578378 -1.289189,0 0,1.289189 1.289189,0 z m 25.783784,0 -1.289189,0 0,1.289189 1.289189,0 z m 3.867568,-3.867568 -1.289189,0 0,1.28919 -1.289189,0 0,-2.578379 -2.578379,0 0,1.289189 1.289189,0 0,1.28919 -1.289189,0 0,1.289189 3.867568,0 0,1.289189 1.289189,0 z m -30.940541,0 -1.289189,0 0,1.28919 1.289189,0 z m 3.867568,-3.867567 -1.289189,0 0,1.289189 1.289189,0 z m -1.289189,-6.445946 1.289189,0 0,1.289189 1.289189,0 0,-1.289189 -1.289189,0 0,-1.289189 -1.289189,0 0,1.289189 -1.28919,0 0,1.289189 1.28919,0 z m 18.048648,0 -1.289189,0 0,1.289189 1.289189,0 z m -19.337838,-3.867568 1.28919,0 0,-1.289189 -1.28919,0 0,1.289189 -1.289189,0 0,1.289189 1.289189,0 z m 10.313514,-1.289189 -1.289189,0 0,1.289189 1.289189,0 z m -12.891892,43.832433 1.289189,0 0,-2.578379 6.445946,0 0,1.28919 -5.156757,0 0,1.289189 -1.289189,0 0,1.289189 -1.289189,0 z m 5.156757,0 1.289189,0 0,1.289189 -1.289189,0 z m -9.024325,-9.024325 1.28919,0 0,2.578379 -1.28919,0 z M 7.7924998,40.05873 l 1.2891892,0 0,5.156756 -1.2891892,0 z m 6.4459462,3.867567 2.578378,0 0,-1.289189 -1.289189,0 0,-1.289189 -2.578378,0 0,-1.289189 -1.28919,0 0,-1.28919 1.28919,0 0,1.28919 1.289189,0 0,-1.28919 2.578378,0 0,1.28919 -1.289189,0 0,1.289189 1.289189,0 0,1.289189 2.578379,0 0,1.289189 -2.578379,0 0,1.289189 -2.578378,0 z m 9.024324,0 1.289189,0 0,1.289189 -1.289189,0 z m -12.891892,-2.578378 1.289189,0 0,1.289189 -1.289189,0 z m 7.735135,-1.289189 1.28919,0 0,1.289189 -1.28919,0 z m -7.735135,-3.867568 -2.5783782,0 0,-3.867568 2.5783782,0 0,3.867568 1.289189,0 0,-1.289189 1.28919,0 0,1.289189 1.289189,0 0,-1.289189 1.289189,0 0,-1.289189 1.289189,0 0,1.289189 1.289189,0 0,2.578378 -5.156756,0 0,-1.289189 -1.28919,0 0,1.289189 -1.289189,0 z m 6.445946,-1.289189 -1.289189,0 0,1.289189 1.289189,0 z m -5.156757,-2.578379 2.578379,0 0,1.28919 -2.578379,0 z m 0,-2.578378 1.28919,0 0,1.289189 -1.28919,0 z m -3.8675672,-1.289189 1.2891892,0 0,-1.289189 -1.2891892,0 0,-1.28919 1.2891892,0 0,-1.289189 -1.2891892,0 0,-1.289189 1.2891892,0 0,1.289189 1.289189,0 0,1.289189 -1.289189,0 0,1.28919 1.289189,0 0,2.578378 -2.5783782,0 z m 7.7351352,-2.578379 1.289189,0 0,1.28919 -1.289189,0 z m 0,-2.578378 1.289189,0 0,1.289189 -1.289189,0 z m 2.578378,0 1.28919,0 0,1.289189 -1.28919,0 z m -6.445946,-1.289189 -1.289189,0 0,-1.289189 -2.5783782,0 0,-2.578379 6.4459462,0 0,1.289189 0,1.28919 -1.289189,0 0,-1.28919 -2.578379,0 0,1.28919 1.289189,0 0,1.289189 1.28919,0 0,1.289189 -1.28919,0 z m 3.867568,-1.289189 2.578378,0 0,1.289189 -2.578378,0 z m 38.675676,0 1.289189,0 0,1.289189 -1.289189,0 z M 7.7924998,7.8289996 l 9.0243242,0 0,9.0243244 -9.0243242,0 z m 7.7351352,1.2891892 -6.445946,0 0,6.4459462 6.445946,0 z m -5.156757,1.2891892 3.867568,0 0,3.867568 -3.867568,0 z m 36.097298,-2.5783784 9.024324,0 0,9.0243244 -9.024324,0 z m 7.735135,1.2891892 -6.445946,0 0,6.4459462 6.445946,0 z m -5.156757,1.2891892 3.867568,0 0,3.867568 -3.867568,0 z" id="qrcode" style="fill:#000" />
</svg>
