<?xml version="1.0" encoding="UTF-8" standalone="no"?><svg xmlns="http://www.w3.org/2000/svg" version="1.0" width="68.5" height="64">
<defs><style type="text/css">
svg{background:lightgrey} @media print{#avatar{opacity:0}}
@media screen {#qrcode{opacity:0}}
@media screen and (max-height:236px){#avatar{opacity:1} #qrcode{opacity:0}}
@media screen and (min-height:256px){#avatar{opacity:0} #qrcode{opacity:1}}
@media screen and (max-height:48px){#hideatzooms,#avatar-background{opacity:0}}
/*#avatar,#qrcode,#avatar-background{transition:opacity 1s}*/
</style></defs>
<g id="avatar"><path d="m20.5,56 0,-48 48,0 0,48 z" id="avatar-background" style="fill:#8398b4"/><path d="m30.5,49-2,-2 0,-6-2,-2-1,0-1,-1-1,-2-1,-4 0,-2 2,-2 2,-4 2,-8 20,0 2,3 1,2 0,5 2,7 1,2 0,1-1,1-1,2-2,1-1,3-2,4-2,2 z" id="avatar-face-skin" style="fill:#ecc0a5"/><path d="m33.5,50 0,-5 1,0 0,-3 11,0 0,8-1,2-2,1-6,0 0,-1-2,0 z" id="avatar-face-goatee" style="fill:#c88e69"/><path d="m27.5,15 0.5,7-2.5,0 0,-5.5 1,-1.5 3,-3 4,-4 3,0 0,4 2,0 1,1 8,0 3,1 2,3 1,1.5 0,7.5-1,0 0,-8-3,0-1,-1 0,-2 z" id="avatar-face-caatinga" style="fill:#6d482b"/><path d="m27.5,47 0,-3-1,0 0,-1 1,0 0,-1 0,-1-0.5,0-0.5,0 0,-2.5 0,-2.5-1,0 0,-5-1,0 0,-2-1,0 0,1-1,0 0,2 1,0 0,-1 1,0 0,1-1,0 0,4 1,0 0,2 1,0 0,1-1,0 0,-1-1,0 0,-1-1,0 0,-4-1,0 0,-4 1,0 0,-1 2,0 0,-5-1,0 0,-6 1,0 0,-4 1,0 0,-1 1,0 0,-1 2,0 0,-1 2,0 0,-1 2,0 0,-1 1,0 0,1 1,0 0,-1 8,0 0,1 4,0 0,1 3,0 0,1 1,0 0,1 1,0 0,1 1,0 0,2 1,0 0,2 1,0 0,2 1,0 0,6-1,0 0,3-1,0 0,5 1,0 0,2-1,0 0,-1-2,0 0,5 1,0 0,-3 2,0 0,1-1,0 0,2-1,0 0,2-1,0 0,-1-1,0 0,4-1,0 0,3-1,0 0,1-1,0 0,2-1,0 0,2-1,0 0,1-2,0 0,1-8,0 0,-1-2,0 0,-1-1,0 0,-2-2,0 0,-1-1,0 0,-1-1,0 0,-1zm15,6 0,-4 1,0 0,3 1,0 0,-2 1,0 0,-2 1,0 0,-2 1,0 0,-1-1,0 0,-1 2,0 0,-1 1,0 0,-1-1,0 0,-1 1,0 0,-2 1,0 0,-5 1,0 0,-3-1,0 0,-2 1,0 0,-2-1,0 0,-1 1,0 0,-2-1,0 0,-2 1,0 0,-1-1,0 0,-2-1,0 0,-1 1,0 0,-1-1,0 0,-1-1,0 0,1 1,0 0,1-2,0 0,-1-7,0 0,-1-10,0 0,1-1,0 0,1-1,0 0,2 1,0 0,-1 1,0 0,-1 1,0 0,1 1,0 0,-1 1,0 0,1-1,0 0,1-1,0 0,-1-1,0 0,1-1,0 0,1-1,0 0,3 1,0 0,1-1,0 0,1-1,0 0,-1 1,0 0,-1-2,0 0,2 1,0 0,1.5 0,1.5-1,0 0,3 1,0 0,3 1,0 0,1-1,0 0,1 1,0 0,1-1,0 0,1 1,0 0,3 1,0 0,1-1,0 0,2 1,0 0,1-1,0 0,1 2,0 0,2 1,0 0,-3-1,0 0,-4 1,0 0,3 1,0 0,2 0,2 1,0 0,1 1,0 0,2 2,0 0,1zm-7,-2 0,-2 1,0 0,2zm6,-1-1,0 0,-1 1,0zm-3,-1-1,0 0,-1 1,0zm-3,-1-1,0 0,-1 1,0zm4,0 0,-2 1,0 0,2zm3,-2 0,-1-8,0 0,-0.5 0,-0.5 11,0 0,1-1,0 0,1-2,0zm-5,-4 0,-2 1,0 0,-1 1,0 0,1-1,0 0,2-1,0zm3,0-1,0 0,-1 1,0zm2,0-1,0 0,-1 0,-1 2,0 0,-1-1,0 0,-1 1,0 0,-1-1,0 0,-1-1,0 0,-1 1,0 0,-1-1,0 0,-4 1,0 0,3 1,0 0,4 1,0 0,3-1,0 0,1 0,1zm-4,-4-1,0 0,1-1,0 0,-2 1,0 0,-1-1,0 0,-1 1,0 0,1 1,0 0,-1 1,0 0,2-1,0zm3,0-1,0 0,-1 1,0zm-3,-4-1,0 0,-1 1,0 0,-2 1,0 0,2-1,0zm-1,-2-1,0 0,-1 1,0zm-10,-1 0,-2 1,0 0,-2 3,0 0,-1 1,0 0,1 4,0 0,1 2,0 0,1-5,0 0,-1-3,0 0,1-2,0 0,2zm16,-1 0,-2 7,0 0,1-3,0 0,1zm5,-8 0,-2-1,0 0,-1 1,0 0,1 1,0 0,2zm5,4 0,-2-1,0 0,2zm0,-3 0,-4-1,0 0,4zm-27,-1 0,-1 1,0 0,-1-2,0 0,2zm0,-3 1,0 0,-1-1,0 0,-1 1,0 0,-2-1,0 0,2-1,0 0,1 1,0zm25,-1 1,0 0,-1-1,0zm-22,-3 0,-1 1,0 0,-2-1,0 0,2-1,0 0,1zm19,0 0,-1-1,0 0,-1-2,0 0,1-1,0 0,-1-1,0 0,1-1,0 0,-1-4,0 0,-1-1,0 0,1-1,0 0,-1-1,0 0,2 6,0 0,1zm1,0 1,0 0,-1-1,0zm-15,-1 0,-2-3,0 0,1 2,0 0,1zm1,-4 1,0 0,-1-1,0 z" id="avatar-face-rimjob" style="fill:#000"/><path d="m48.5,33 0,-1-4,0 0,-1 5,0 0,2zm-18,-1 0,-2 6,0 0,1-4,0 0,1 z" id="avatar-face-eye-shade" style="fill:#6a3718"/><path d="m46.5,33 0,-1-1,0 0,1zm-13,-1 1,0 0,-1-1,0 z" id="avatar-face-eyes" style="fill:#4899cd"/>
<g id="hideatzooms"><path d="m30.5,56 0,-1-2,-2-1,-3 0,-2 2,0 0,1 1,0 0,1 2,0 0,2 1,0 0,1 2,0 0,1 8,0 0,2 z" id="avatar-details-neck" style="fill:#ecc0a5"/><path d="m42.5,19 0,1 1,0 0,-1zm-4,0 0,1 1,0 0,-1zm-4,1 0,1 1,0 0,-1zm10,0 0,1 1,0 0,-1zm-14,1 0,1 1,0 0,-1zm2,0 0,1 1,0 0,-1zm9,1 0,1 1,0 0,-1zm-9,1 0,1 1,0 0,-1zm14,0 0,1 1,0 0,-1zm2,0 0,1 1,0 0,-1zm-10,0 0,1 1,0 0,-1zm5,0 0,1 1,0 0,-1zm4,2 0,1 1,0 0,-1zm-17,11 0,1 1,0 0,-1zm16,1 0,1 1,0 0,-1zm-15,1 0,1 1,0 0,-1zm15,1 0,1 1,0 0,-1zm-14,1 0,1 1,0 0,-1zm-3,0 0,1 1,0 0,-1zm6,1 0,1-1,0 0,1 1,0 0,-1 1,0 0,-1zm11,1 0,1 1,0 0,-1zm-1,0-1,0 0,1 1,0zm-18,5-1,0 0,1-1,0 0,1-1,0 0,1-1,0 0,1-3,0 0,1 3,0 0,-1 1,0 0,-1 1,0 0,-1 1,0 0,1 1,0 0,3 1,0 0,1 1,0 0,1 1,0 0,1 1,0 0,-1-1,0 0,-2-2,0 0,-4-1,0 0,-1 1,0 0,-1zm21,0 0,1 7,0 0,1 3,0 0,1 1,0 0,1 1,0 0,-1-1,0 0,-1-1,0 0,-1-3,0 0,-1zm12,4 0,1 1,0 0,1 1,0 0,3 1,0 0,-3-1,0 0,-1-1,0 0,-1zm-17,2 0,2 1,0 0,-2zm0,2 0,0 0,0zm0,0-1,0 0,1 1,0zm-5,0 0,1 1,0 0,-1zm-6,0 0,1 1,0 0,-1zm4,0-1,0 0,1 1,0zm4,0 0,1 1,0 0,-1 z" id="avatar-details-spots" style="fill:#000"/><path d="m24.5,50 0,1-1,0 0,1-3,0 0,4 10,0 0,-1-1,0 0,-1-1,0 0,-1-1,0 0,-3-1,0 0,-1-1,0 0,1zm23,-2 0,2-1,0 0,2-1,0 0,1-1,0 0,2-1,0 0,1 19,0 0,-3-1,0 0,-1-1,0 0,-1-1,0 0,-1-1,0 0,-1-3,0 0,-1 z" id="avatar-details-shoulder" style="fill:#fff"/></g></g>
<path d="m7.7924998,46.504676 9.0242,0 0,9.024-9.0242,0zm7.742,1.29-6.446,0 0,6.446 6.446,0zm-5.16,1.29 3.868,0 0,3.868-3.868,0zm7.74,0 1.29,0 0,2.58 1.29,0 0,-1.29 1.29,0 0,-1.29-1.29,0 0,-9.024 1.29,0 0,-1.29-1.29,0 0,-1.29 1.29,0 0,-2.58-1.29,0 0,1.29-1.29,0 0,-1.29 1.29,0 0,-1.29-1.29,0 0,-1.29-3.868,0 0,-1.29 2.58,0 0,-1.29-3.87,0 0,-1.29 3.87,0 0,-1.29 1.29,0 0,1.29-1.29,0 0,1.29 1.29,0 0,2.58 1.29,0 0,-3.87 1.29,0 0,-1.29-1.29,0 0,-1.29 1.29,0 0,-1.29-1.29,0 0,-2.58 1.29,0 0,1.29 1.29,0 0,-7.74-1.29,0 0,1.29-1.29,0 0,2.58-5.16,0 0,-1.29 3.868,0 0,-1.29-1.29,0 0,-2.58 1.29,0 0,-1.29-1.29,0 0,-1.29 1.29,0 0,-1.29-1.29,0 0,-1.292 3.868,0 0,1.292-1.29,0 0,1.933784 0,1.933784-1.29,0 0,2.58 1.29,0 0,-1.29 1.29,0 0,-3.868 1.29,0 0,-3.874 3.868,0 0,1.292-1.29,0 0,1.292 3.87,0 0,-1.292 0,-1.292 0.644595,0 0.645,0 0,1.292 2.58,0 0,-1.292 1.29,0 0,1.292 1.29,0 0,-1.292 1.29,0 0,1.292 2.58,0 0,-1.292 0.645,0 0.644595,0 0,1.292 3.868,0 0,9.0242 1.29,0 0,2.58 1.29,0 0,-2.58 1.29,0 0,3.868-1.29,0 0,2.58 1.29,0 0,-1.29 1.29,0 0,-1.29 1.29,0 0,-2.58-1.29,0 0,-1.29 1.29,0 0,1.29 1.29,0 0,-1.29 1.29,0 0,1.29-1.29,0 0,2.58-1.29,0 0,1.29 1.29,0 0,1.29 1.29,0 0,1.29 1.29,0 0,3.868-1.29,0 0,1.29 1.29,0 0,3.868-1.29,0 0,1.29 1.29,0 0,3.868-1.29,0 0,1.29 1.29,0 0,1.29 0,1.29-1.29,0 0,-1.29-1.29,0 0,-1.29-1.29,0 0,1.29-1.29,0 0,1.29 2.58,0 0,2.58 2.58,0 0,2.58-1.29,0 0,1.29 1.29,0 0,5.16-3.87,0 0,-1.29 2.58,0 0,-2.58-1.29,0 0,-1.29-2.58,0 0,1.29 1.29,0 0,1.29-1.29,0 0,1.29-1.29,0 0,-1.29-1.29,0 0,2.58-2.58,0 0,-1.29-5.16,0 0,1.29-3.868,0 0,-1.29-1.29,0 0,-1.29-2.58,0 0,1.29-1.29,0 0,1.29-1.29,0 0,-1.29 1.29,0 0,-1.29 1.29,0 0,-1.29-1.29,0 0,-1.29-1.29,0-1.29,0 0,-1.29-1.29,0 0,1.29-1.29,0 0,-1.29 1.29,0 0,-5.16-1.29,0 0,-1.29 1.29,0 0,-1.29-3.868,0 0,-1.29-1.29,0 0,6.446 2.58,0 0,1.29-2.58,0 0,1.29 1.29,0 0,1.29-1.29,0 0,2.58-1.29,0 0,1.29-1.29,0 0,1.29-1.29,0zm28.362163,3.868 1.29,0 0,-1.29 1.29,0 0,1.29 1.29,0 0,-1.29-1.29,0 0,-1.29-1.29,0 0,1.29-2.58,0 0,-1.29-2.58,0 0,2.58 1.29,0 0,-1.29 1.29,0 0,2.58 1.29,0zm-5.16,-2.58-1.29,0 0,-2.58 1.29,0 0,1.29 2.58,0 0,-2.58-2.58,0 0,-1.29-1.29,0 0,2.58-1.29,0 0,-2.58-5.16,0 0,-1.29 9.024,0 0,-1.29-1.29,0 0,-2.58 1.29,0 0,1.29 3.868,0 0,1.29-1.29,0 0,1.29 3.87,0 0,-1.29 1.29,0 0,-2.58-1.29,0 0,-1.29-1.29,0 0,-1.29 1.29,0 0,-1.29 1.29,0 0,1.29 0,1.29 3.868,0 0,-1.29-2.58,0 0,-2.58-1.29,0-1.29,0 0,-1.29 0,-1.29-2.58,0 0,-1.29 1.29,0 0,-1.29-1.29,0 0,1.29-1.29,0 0,-1.29-1.29,0 0,1.29 1.29,0 0,1.29-2.58,0 0,1.29 1.29,0 0,1.29-1.29,0 0,1.29 3.868,0 0,1.29-1.29,0 0,1.29-1.29,0 0,-1.29-2.58,0 0,-6.446 1.29,0 0,-2.58 2.58,0 0,-2.58 2.58,0 0,-1.29-2.58,0 0,1.29-2.58,0 0,-1.29 1.29,0 0,-2.58 1.29,0 0,1.29 1.29,0 0,-1.29-1.29,0 0,-3.868-5.16,0 0,-1.29 1.29,0 0,-1.29-1.29,0 0,1.29-1.29,0 0,-1.29-1.29,0 0,1.29-1.29,0 0,-1.29-1.29,0 0,1.29-1.29,0 0,-1.29-1.29,0 0,1.29-1.29,0 0,-1.29-1.29,0 0,1.29 1.29,0 0,1.29-1.29,0 0,1.29-1.29,0 0,1.29 1.29,0 0,1.29-1.29,0 0,2.58-1.29,0 0,1.29 1.29,0 0,1.29-1.29,0 0,1.29-1.29,0 0,1.29 1.29,0 0,-1.29 1.29,0 0,-1.29 1.29,0 1.29,0 0,-1.29 1.29,0 0,1.29 1.934,0 1.934,0 0,1.29 2.58,0 0,0.645 0,0.644595-2.58,0 0,1.29-1.29,0 0,1.29-5.16,0 0,-1.29 1.29,0 0,-1.29 2.58,0 0,-1.29-2.58,0 0,1.29-2.58,0 0,1.29-1.29,0 0,3.868 1.29,0 0,6.446 1.29,0 0,1.29-1.29,0 0,2.58 1.29,0 0,1.29 1.29,0 0,-1.29-1.29,0 0,-2.58 1.29,0 0,1.29 1.29,0 0,5.16 2.58,0 0,-1.29-1.29,0 0,-1.29 2.58,0 0,1.29 2.58,0 0,1.29-2.58,0 0,2.58 5.16,0zm-6.446,-9.024 1.29,0 0,1.29-1.29,0zm2.58,-2.58-1.29,0 0,-3.87 2.58,0 0,2.58-1.29,0 0,1.29 1.29,0 0,2.58 1.29,0 0,1.29-2.58,0zm10.314,1.29-2.58,0 0,-1.29 2.58,0 0,1.29 1.29,0 0,2.58-1.29,0zm-7.74,-2.58 1.29,0 0,1.29-1.29,0zm7.74,-2.58-1.29,0 0,-1.29 1.29,0 0,1.29 1.29,0 0,1.29-1.29,0zm-10.314,-2.58-1.29,0 0,-1.29 2.58,0 0,2.58-1.29,0zm-9.024,-7.74 1.29,0 0,1.29-1.29,0zm20.627,20.627-3.87,0 0,3.868 3.87,0zm-2.58,1.29 1.29,0 0,1.29-1.29,0zm7.74,1.29-3.868,0 0,1.29 3.868,0zm-2.58,-2.58-1.29,0 0,1.29 1.29,0zm-25.783784,-10.313513 0,-2.58-1.29,0-1.29,0 0,3.868 1.29,0 0,1.29 1.29,0 0,-2.58zm28.362162,-2.58-3.868,0 0,1.29 3.868,0zm-29.651352,-2.58-1.29,0 0,1.29 1.29,0zm25.783784,0-1.29,0 0,1.29 1.29,0zm3.868,-3.868-1.29,0 0,1.29-1.29,0 0,-2.58-2.58,0 0,1.29 1.29,0 0,1.29-1.29,0 0,1.29 3.868,0 0,1.29 1.29,0zm-30.940541,0-1.29,0 0,1.29 1.29,0zm3.868,-3.87-1.29,0 0,1.29 1.29,0zm-1.29,-6.446 1.29,0 0,1.29 1.29,0 0,-1.29-1.29,0 0,-1.29-1.29,0 0,1.29-1.29,0 0,1.29 1.29,0zm18.048648,0-1.29,0 0,1.29 1.29,0zm-19.337838,-3.868 1.29,0 0,-1.29-1.29,0 0,1.29-1.29,0 0,1.29 1.29,0zm10.314,-1.29-1.29,0 0,1.29 1.29,0zm-12.891892,43.832433 1.29,0 0,-2.58 6.446,0 0,1.29-5.16,0 0,1.29-1.29,0 0,1.29-1.29,0zm5.16,0 1.29,0 0,1.29-1.29,0zm-9.024325,-9.024325 1.29,0 0,2.58-1.29,0zM7.7924998,40.05873l1.292,0 0,5.156756-1.292,0zm6.4462,3.87 2.58,0 0,-1.29-1.29,0 0,-1.29-2.58,0 0,-1.29-1.29,0 0,-1.29 1.29,0 0,1.29 1.29,0 0,-1.29 2.58,0 0,1.29-1.29,0 0,1.29 1.29,0 0,1.29 2.58,0 0,1.29-2.58,0 0,1.29-2.58,0zm9.024,0 1.29,0 0,1.29-1.29,0zm-12.891892,-2.58 1.29,0 0,1.29-1.29,0zm7.74,-1.29 1.29,0 0,1.29-1.29,0zm-7.74,-3.868-2.582,0 0,-3.868 2.582,0 0,3.868 1.29,0 0,-1.29 1.29,0 0,1.29 1.29,0 0,-1.29 1.29,0 0,-1.29 1.29,0 0,1.29 1.29,0 0,2.58-5.156756,0 0,-1.29-1.29,0 0,1.29-1.29,0zm6.446,-1.29-1.29,0 0,1.29 1.29,0zm-5.16,-2.58 2.58,0 0,1.29-2.58,0zm0,-2.58 1.29,0 0,1.29-1.29,0zm-3.872,-1.29 1.292,0 0,-1.29-1.292,0 0,-1.29 1.292,0 0,-1.29-1.292,0 0,-1.29 1.292,0 0,1.29 1.29,0 0,1.29-1.29,0 0,1.29 1.29,0 0,2.58-2.582,0zm7.742,-2.58 1.29,0 0,1.29-1.29,0zm0,-2.58 1.29,0 0,1.29-1.29,0zm2.58,0 1.29,0 0,1.29-1.29,0zm-6.446,-1.29-1.29,0 0,-1.29-2.582,0 0,-2.58 6.4462,0 0,1.29 0,1.29-1.29,0 0,-1.29-2.58,0 0,1.29 1.29,0 0,1.29 1.29,0 0,1.29-1.29,0zm3.868,-1.29 2.58,0 0,1.29-2.58,0zm38.675676,0 1.29,0 0,1.29-1.29,0zM7.7924998,7.83l9.0242,0 0,9.0244-9.0242,0zm7.742,1.292-6.446,0 0,6.4462 6.446,0zm-5.16,1.292 3.868,0 0,3.868-3.868,0zm36.097298,-2.584 9.024,0 0,9.0244-9.024,0zm7.74,1.292-6.446,0 0,6.4462 6.446,0zm-5.16,1.292 3.868,0 0,3.868-3.868,0 z" id="qrcode" style="fill:#000"/>
</svg>
