<?xml version="1.0" encoding="UTF-8" standalone="yes"?><svg xmlns="http://www.w3.org/2000/svg" version="1.0" width="68.5" height="64">
<defs><style type="text/css">
svg{background:lightgrey;} @media print { #avatar { opacity: 0} }
@media screen { #qrcode { opacity: 0} }
@media screen and (max-height:236px) { #avatar{opacity:1} #qrcode{opacity:0 !important}}
@media screen and (min-height:256px) { #avatar{opacity:0} #qrcode{opacity:1}}
@media screen and (min-height: 65px) { #avatar-background{opacity:0}}
@media screen and (max-height: 31px) { #hideatzooms{opacity:0}}
</style></defs>
<g transform="translate(-0.2,0)"><g transform="translate(20.7,8)" id="avatar">
<path d="M 0,48 0,0 48,0 48,48 z" id="avatar-background" fill="#8398b4"/><path d="M 10,41 8,39 8,33 6,31 5,31 4,30 3,28 2,24 2,22 4,20 6,16 8,8l20,0 2,3 1,2 0,5 2,7 1,2 0,1 -1,1 -1,2 -2,1 -1,3 -2,4 -2,2 z" id="avatar-face-skin" fill="#ecc0a5"/><path d="m26,25 0,-1 -1,0 0,1zm-13,-1 1,0 0,-1 -1,0 z" id="avatar-face-eyes" fill="#4899cd"/><path d="m28,25 0,-1 -4,0 0,-1 5,0 0,2zm-18,-1 0,-2 6,0 0,1 -4,0 0,1 z" id="avatar-face-eye-shade" fill="#6a3718"/><path d="m13,42 0,-5 1,0 0,-3 11,0 0,8 -1,2 -2,1 -6,0 0,-1 -2,0 z" id="avatar-face-goatee" fill="#c88e69"/><path d="M 7,7 7.5,14 5,14 5,8.5 6,7 9,4l4,-4 3,0 0,4 2,0 1,1 8,0 3,1 2,3 1,1.5 0,7.5 -1,0 0,-8 -3,0 -1,-1 0,-2 z" id="avatar-face-caatinga" fill="#6d482b"/>
<path d="M 7,39 7,36 6,36 6,35 7,35 7,34 7,33 6.5,33 6,33 6,30.5 6,28 l-1,0 0,-5 -1,0 0,-2 -1,0 0,1 -1,0 0,2 1,0 0,-1 1,0 0,1 -1,0 0,4 1,0 0,2 1,0 0,1 -1,0 0,-1 -1,0 0,-1 -1,0 0,-4 -1,0 0,-4 1,0 0,-1 2,0 L 4,15 3,15 3,9 4,9 4,5 5,5 5,4 6,4 6,3 8,3 8,2l2,0 0,-1 2,0 0,-1 1,0 0,1 1,0 0,-1 8,0 0,1 4,0 0,1 3,0 0,1 1,0 0,1 1,0 0,1 1,0 0,2 1,0 0,2 1,0 0,2 1,0 0,6 -1,0 0,3 -1,0 0,5 1,0 0,2 -1,0 0,-1 -2,0 0,5 1,0 0,-3 2,0 0,1 -1,0 0,2 -1,0 0,2 -1,0 0,-1 -1,0 0,4 -1,0 0,3 -1,0 0,1 -1,0 0,2 -1,0 0,2 -1,0 0,1 -2,0 0,1 -8,0 0,-1 -2,0 0,-1 -1,0 0,-2 -2,0 0,-1 -1,0 0,-1 -1,0 0,-1zm15,6 0,-4 1,0 0,3 1,0 0,-2 1,0 0,-2 1,0 0,-2 1,0 0,-1 -1,0 0,-1 2,0 0,-1 1,0 0,-1 -1,0 0,-1 1,0 0,-2 1,0 0,-5 1,0 0,-3 -1,0 0,-2 1,0 0,-2 -1,0 0,-1 1,0 0,-2 -1,0 0,-2 1,0 0,-1 -1,0 0,-2 -1,0 0,-1 1,0 0,-1 -1,0 0,-1 -1,0 0,1 1,0 0,1 -2,0 0,-1 -7,0 0,-1 -10,0 0,1 -1,0 0,1 -1,0 0,2 1,0 0,-1 1,0 0,-1 1,0 0,1 1,0 0,-1 1,0 0,1 -1,0 0,1 -1,0 0,-1 -1,0 0,1 -1,0 0,1 -1,0 0,3 1,0 0,1 -1,0 0,1 -1,0 0,-1 1,0 0,-1 -2,0 0,2 1,0 0,1.5 0,1.5 -1,0 0,3 1,0 0,3 1,0 0,1 -1,0 0,1 1,0 0,1 -1,0 0,1 1,0 0,3 1,0 0,1 -1,0 0,2 1,0 0,1 -1,0 0,1 2,0 0,2 1,0 0,-3 -1,0 0,-4 1,0 0,3 1,0 0,2 0,2 1,0 0,1 1,0 0,2 2,0 0,1zm-7,-2 0,-2 1,0 0,2zm6,-1 -1,0 0,-1 1,0zm-3,-1 -1,0 0,-1 1,0zm-3,-1 -1,0 0,-1 1,0zm4,0 0,-2 1,0 0,2zm3,-2 0,-1 -8,0 0,-0.5 0,-0.5 11,0 0,1 -1,0 0,1 -2,0zm-5,-4 0,-2 1,0 0,-1 1,0 0,1 -1,0 0,2 -1,0zm3,0 -1,0 0,-1 1,0zm2,0 -1,0 0,-1 0,-1 2,0 0,-1 -1,0 0,-1 1,0 0,-1 -1,0 0,-1 -1,0 0,-1 1,0 0,-1 -1,0 0,-4 1,0 0,3 1,0 0,4 1,0 0,3 -1,0 0,1 0,1zm-4,-4 -1,0 0,1 -1,0 0,-2 1,0 0,-1 -1,0 0,-1 1,0 0,1 1,0 0,-1 1,0 0,2 -1,0zm3,0 -1,0 0,-1 1,0zm-3,-4 -1,0 0,-1 1,0 0,-2 1,0 0,2 -1,0zm-1,-2 -1,0 0,-1 1,0zm-10,-1 0,-2 1,0 0,-2 3,0 0,-1 1,0 0,1 4,0 0,1 2,0 0,1 -5,0 0,-1 -3,0 0,1 -2,0 0,2zm16,-1 0,-2 7,0 0,1 -3,0 0,1zm5,-8 0,-2 -1,0 0,-1 1,0 0,1 1,0 0,2zm5,4 0,-2 -1,0 0,2zm0,-3 0,-4 -1,0 0,4zM 6,14 6,13 7,13 7,12 5,12 5,14zM 6,11 7,11 7,10 6,10 6,9 7,9 7,7 6,7 6,9 5,9l0,1 1,0zm25,-1 1,0 0,-1 -1,0zM 9,7 9,6 10,6 10,4 9,4 9,6 8,6 8,7zm19,0 0,-1 -1,0 0,-1 -2,0 0,1 -1,0 0,-1 -1,0 0,1 -1,0 0,-1 -4,0 0,-1 -1,0 0,1 -1,0 0,-1 -1,0 0,2 6,0 0,1zm1,0 1,0 0,-1 -1,0zm-15,-1 0,-2 -3,0 0,1 2,0 0,1zm1,-4 1,0 0,-1 -1,0 z" id="avatar-face-rimjob" fill="#000"/>
<g id="hideatzooms"><path d="m10,48 0,-1 -2,-2 -1,-3 0,-2 2,0 0,1 1,0 0,1 2,0 0,2 1,0 0,1 2,0 0,1 8,0 0,2 z" id="avatar-details-neck" fill="#ecc0a5"/><path d="m22,11 0,1 1,0 0,-1zm-4,0 0,1 1,0 0,-1zm-4,1 0,1 1,0 0,-1zm10,0 0,1 1,0 0,-1zm-14,1 0,1 1,0 0,-1zm2,0 0,1 1,0 0,-1zm9,1 0,1 1,0 0,-1zm-9,1 0,1 1,0 0,-1zm14,0 0,1 1,0 0,-1zm2,0 0,1 1,0 0,-1zm-10,0 0,1 1,0 0,-1zm5,0 0,1 1,0 0,-1zm4,2 0,1 1,0 0,-1zm-17,11 0,1 1,0 0,-1zm16,1 0,1 1,0 0,-1zm-15,1 0,1 1,0 0,-1zm15,1 0,1 1,0 0,-1zm-14,1 0,1 1,0 0,-1zm-3,0 0,1 1,0 0,-1zm6,1 0,1 -1,0 0,1 1,0 0,-1 1,0 0,-1zm11,1 0,1 1,0 0,-1zm-1,0 -1,0 0,1 1,0zm-18,5 -1,0 0,1 -1,0 0,1 -1,0 0,1 -1,0 0,1 -3,0 0,1 3,0 0,-1 1,0 0,-1 1,0 0,-1 1,0 0,1 1,0 0,3 1,0 0,1 1,0 0,1 1,0 0,1 1,0 0,-1 -1,0 0,-2 -2,0 0,-4 -1,0 0,-1 1,0 0,-1zm21,0 0,1 7,0 0,1 3,0 0,1 1,0 0,1 1,0 0,-1 -1,0 0,-1 -1,0 0,-1 -3,0 0,-1zm12,4 0,1 1,0 0,1 1,0 0,3 1,0 0,-3 -1,0 0,-1 -1,0 0,-1zm-17,2 0,2 1,0 0,-2zm0,2 0,0 0,0zm0,0 -1,0 0,1 1,0zm-5,0 0,1 1,0 0,-1zm-6,0 0,1 1,0 0,-1zm4,0 -1,0 0,1 1,0zm4,0 0,1 1,0 0,-1 z" id="avatar-details-spots" fill="#000"/><path d="m4,42 0,1 -1,0 0,1 -3,0 0,4 10,0 0,-1 -1,0 0,-1 -1,0 0,-1 -1,0 0,-3 -1,0 0,-1 -1,0 0,1zm23,-2 0,2 -1,0 0,2 -1,0 0,1 -1,0 0,2 -1,0 0,1 19,0 0,-3 -1,0 0,-1 -1,0 0,-1 -1,0 0,-1 -1,0 0,-1 -3,0 0,-1 z" id="avatar-details-shoulder" fill="#fff"/></g>
</g>
<g transform="matrix(1.2891892,0,0,1.2891892,7.9924998,55.529)" id="qrcode"><path d="m0,-7 7,0 0,7 -7,0zm6,1 -5,0 0,5 5,0zm-4,1 3,0 0,3 -3,0zm6,0 1,0 0,2 1,0 0,-1 1,0 0,-1 -1,0 0,-7 1,0 0,-1 -1,0 0,-1 1,0 0,-2 -1,0 0,1 -1,0 0,-1 1,0 0,-1 -1,0 0,-1 -3,0 0,-1 2,0 0,-1 -3,0 0,-1 3,0 0,-1 1,0 0,1 -1,0 0,1 1,0 0,2 1,0 0,-3 1,0 0,-1 -1,0 0,-1 1,0 0,-1 -1,0 0,-2 1,0 0,1 1,0 0,-6 -1,0 0,1 -1,0 0,2 -4,0 0,-1 3,0 0,-1 -1,0 0,-2 1,0 0,-1 -1,0 0,-1 1,0 0,-1 -1,0 0,-1 3,0 0,1 -1,0 0,1.5 0,1.5 -1,0 0,2 1,0 0,-1 1,0 0,-3 1,0 0,-3 3,0 0,1 -1,0 0,1 3,0 0,-1 0,-1 0.5,0 0.5,0 0,1 2,0 0,-1 1,0 0,1 1,0 0,-1 1,0 0,1 2,0 0,-1 0.5,0 0.5,0 0,1 3,0 0,7 1,0 0,2 1,0 0,-2 1,0 0,3 -1,0 0,2 1,0 0,-1 1,0 0,-1 1,0 0,-2 -1,0 0,-1 1,0 0,1 1,0 0,-1 1,0 0,1 -1,0 0,2 -1,0 0,1 1,0 0,1 1,0 0,1 1,0 0,3 -1,0 0,1 1,0 0,3 -1,0 0,1 1,0 0,3 -1,0 0,1 1,0 0,1 0,1 -1,0 0,-1 -1,0 0,-1 -1,0 0,1 -1,0 0,1 2,0 0,2 2,0 0,2 -1,0 0,1 1,0 0,4 -3,0 0,-1 2,0 0,-2 -1,0 0,-1 -2,0 0,1 1,0 0,1 -1,0 0,1 -1,0 0,-1 -1,0 0,2 -2,0 0,-1 -4,0 0,1 -3,0 0,-1 -1,0 0,-1 -2,0 0,1 -1,0 0,1 -1,0 0,-1 1,0 0,-1 1,0 0,-1 -1,0 0,-1 -1,0 -1,0 0,-1 -1,0 0,1 -1,0 0,-1 1,0 0,-4 -1,0 0,-1 1,0 0,-1 -3,0 0,-1 -1,0 0,5 2,0 0,1 -2,0 0,1 1,0 0,1 -1,0 0,2 -1,0 0,1 -1,0 0,1 -1,0zm22,3 1,0 0,-1 1,0 0,1 1,0 0,-1 -1,0 0,-1 -1,0 0,1 -2,0 0,-1 -2,0 0,2 1,0 0,-1 1,0 0,2 1,0zm-4,-2 -1,0 0,-2 1,0 0,1 2,0 0,-2 -2,0 0,-1 -1,0 0,2 -1,0 0,-2 -4,0 0,-1 7,0 0,-1 -1,0 0,-2 1,0 0,1 3,0 0,1 -1,0 0,1 3,0 0,-1 1,0 0,-2 -1,0 0,-1 -1,0 0,-1 1,0 0,-1 1,0 0,1 0,1 3,0 0,-1 -2,0 0,-2 -1,0 -1,0 0,-1 0,-1 -2,0 0,-1 1,0 0,-1 -1,0 0,1 -1,0 0,-1 -1,0 0,1 1,0 0,1 -2,0 0,1 1,0 0,1 -1,0 0,1 3,0 0,1 -1,0 0,1 -1,0 0,-1 -2,0 0,-5 1,0 0,-2 2,0 0,-2 2,0 0,-1 -2,0 0,1 -2,0 0,-1 1,0 0,-2 1,0 0,1 1,0 0,-1 -1,0 0,-3 -4,0 0,-1 1,0 0,-1 -1,0 0,1 -1,0 0,-1 -1,0 0,1 -1,0 0,-1 -1,0 0,1 -1,0 0,-1 -1,0 0,1 -1,0 0,-1 -1,0 0,1 1,0 0,1 -1,0 0,1 -1,0 0,1 1,0 0,1 -1,0 0,2 -1,0 0,1 1,0 0,1 -1,0 0,1 -1,0 0,1 1,0 0,-1 1,0 0,-1 1,0 1,0 0,-1 1,0 0,1 1.5,0 1.5,0 0,1 2,0 0,0.5 0,0.5 -2,0 0,1 -1,0 0,1 -4,0 0,-1 1,0 0,-1 2,0 0,-1 -2,0 0,1 -2,0 0,1 -1,0 0,3 1,0 0,5 1,0 0,1 -1,0 0,2 1,0 0,1 1,0 0,-1 -1,0 0,-2 1,0 0,1 1,0 0,4 2,0 0,-1 -1,0 0,-1 2,0 0,1 2,0 0,1 -2,0 0,2 4,0zm-5,-7 1,0 0,1 -1,0zm2,-2 -1,0 0,-3 2,0 0,2 -1,0 0,1 1,0 0,2 1,0 0,1 -2,0zm8,1 -2,0 0,-1 2,0 0,1 1,0 0,2 -1,0zm-6,-2 1,0 0,1 -1,0zm6,-2 -1,0 0,-1 1,0 0,1 1,0 0,1 -1,0zm-8,-2 -1,0 0,-1 2,0 0,2 -1,0zm-7,-6 1,0 0,1 -1,0zm16,16 -3,0 0,3 3,0zm-2,1 1,0 0,1 -1,0zm6,1 -3,0 0,1 3,0zm-2,-2 -1,0 0,1 1,0zm-20,-8 0,-2 -1,0 -1,0 0,3 1,0 0,1 1,0 0,-2zm22,-2 -3,0 0,1 3,0zm-23,-2 -1,0 0,1 1,0zm20,0 -1,0 0,1 1,0zm3,-3 -1,0 0,1 -1,0 0,-2 -2,0 0,1 1,0 0,1 -1,0 0,1 3,0 0,1 1,0zm-24,0 -1,0 0,1 1,0zm3,-3 -1,0 0,1 1,0zm-1,-5 1,0 0,1 1,0 0,-1 -1,0 0,-1 -1,0 0,1 -1,0 0,1 1,0zm14,0 -1,0 0,1 1,0zm-15,-3 1,0 0,-1 -1,0 0,1 -1,0 0,1 1,0zm8,-1 -1,0 0,1 1,0zm-10,34 1,0 0,-2 5,0 0,1 -4,0 0,1 -1,0 0,1 -1,0zm4,0 1,0 0,1 -1,0zm-7,-7 1,0 0,2 -1,0zm-8,-4 1,0 0,4 -1,0zm5,3 2,0 0,-1 -1,0 0,-1 -2,0 0,-1 -1,0 0,-1 1,0 0,1 1,0 0,-1 2,0 0,1 -1,0 0,1 1,0 0,1 2,0 0,1 -2,0 0,1 -2,0zm7,0 1,0 0,1 -1,0zm-10,-2 1,0 0,1 -1,0zm6,-1 1,0 0,1 -1,0zm-6,-3 -2,0 0,-3 2,0 0,3 1,0 0,-1 1,0 0,1 1,0 0,-1 1,0 0,-1 1,0 0,1 1,0 0,2 -4,0 0,-1 -1,0 0,1 -1,0zm5,-1 -1,0 0,1 1,0zm-4,-2 2,0 0,1 -2,0zm0,-2 1,0 0,1 -1,0zm-3,-1 1,0 0,-1 -1,0 0,-1 1,0 0,-1 -1,0 0,-1 1,0 0,1 1,0 0,1 -1,0 0,1 1,0 0,2 -2,0zm6,-2 1,0 0,1 -1,0zm0,-2 1,0 0,1 -1,0zm2,0 1,0 0,1 -1,0zm-5,-1 -1,0 0,-1 -2,0 0,-2 5,0 0,1 0,1 -1,0 0,-1 -2,0 0,1 1,0 0,1 1,0 0,1 -1,0zm3,-1 2,0 0,1 -2,0zm30,0 1,0 0,1 -1,0zm-36,-10 7,0 0,7 -7,0zm6,1 -5,0 0,5 5,0zm-4,1 3,0 0,3 -3,0zm28,-2 7,0 0,7 -7,0zm6,1 -5,0 0,5 5,0zm-4,1 3,0 0,3 -3,0 z" id="svg-qrcode" fill="#000"/></g></g></svg>
